<svg width="219" height="40" viewBox="0 0 219 40" fill="none" xmlns="http://www.w3.org/2000/svg">
<rect width="219" height="40" fill="white"/>
<g clip-path="url(#clip0_29722_3736)">
<path d="M53.0518 30.2532C52.8298 30.0171 52.7188 29.731 52.7188 29.3838V13.5045C52.7188 13.1601 52.8325 12.8712 53.0599 12.6379C53.29 12.4046 53.5635 12.2852 53.883 12.2852C54.2025 12.2852 54.5003 12.4018 54.7278 12.6379C54.9579 12.8712 55.0716 13.1629 55.0716 13.5045V28.1645H63.3486C63.6844 28.1645 63.966 28.2811 64.1934 28.5172C64.4208 28.7506 64.5373 29.0394 64.5373 29.3838C64.5373 29.7283 64.4235 30.0171 64.1934 30.2532C63.966 30.4865 63.6817 30.606 63.3486 30.606H53.883C53.5473 30.606 53.2684 30.4865 53.0491 30.2532H53.0518Z" fill="#1E8767"/>
<path d="M69.5706 29.8647C68.6095 29.3092 67.8622 28.5398 67.3288 27.5538C66.7954 26.5677 66.5273 25.4512 66.5273 24.1985C66.5273 22.9458 66.7927 21.807 67.3288 20.821C67.8622 19.8349 68.6095 19.0655 69.5706 18.51C70.5318 17.9545 71.6203 17.6768 72.8414 17.6768C74.0625 17.6768 75.1239 17.9545 76.0769 18.51C77.03 19.0655 77.7773 19.8349 78.3188 20.821C78.8603 21.807 79.1311 22.9319 79.1311 24.1985C79.1311 25.465 78.8657 26.5677 78.3296 27.5538C77.7962 28.5398 77.0544 29.3092 76.1013 29.8647C75.1482 30.4202 74.0625 30.698 72.8414 30.698C71.6203 30.698 70.5318 30.4202 69.5706 29.8647ZM74.9316 28.0232C75.5489 27.6482 76.0282 27.1288 76.372 26.4622C76.7159 25.7984 76.8865 25.0429 76.8865 24.1985C76.8865 23.3541 76.7159 22.5958 76.372 21.9237C76.0282 21.2515 75.5489 20.7265 74.9316 20.3516C74.3143 19.9766 73.6157 19.7877 72.8387 19.7877C72.0616 19.7877 71.3631 19.9766 70.7457 20.3516C70.1284 20.7265 69.6438 21.2515 69.2945 21.9237C68.9452 22.5958 68.7692 23.3541 68.7692 24.1985C68.7692 25.0429 68.9452 25.7984 69.2945 26.4622C69.6438 27.1288 70.1284 27.6482 70.7457 28.0232C71.3631 28.3982 72.0616 28.587 72.8387 28.587C73.6157 28.587 74.3143 28.4009 74.9316 28.0232Z" fill="#1E8767"/>
<path d="M91.5098 18.5128C92.4628 19.0683 93.2101 19.8377 93.7516 20.8237C94.2931 21.8097 94.5639 22.9347 94.5639 24.2012V29.2675C94.5639 30.5035 94.2986 31.6284 93.7625 32.645C93.2291 33.6616 92.4791 34.4643 91.5098 35.0504C90.5432 35.6365 89.4466 35.9309 88.2282 35.9309C87.1316 35.9309 86.1082 35.7087 85.1632 35.2615C84.2183 34.8171 83.425 34.1782 82.786 33.3505C82.6181 33.1311 82.5342 32.9117 82.5342 32.695C82.5342 32.3673 82.6939 32.0839 83.0134 31.8506C83.2273 31.7118 83.4412 31.6395 83.6551 31.6395C84.0369 31.6395 84.3483 31.8034 84.5919 32.1339C85.0035 32.6811 85.5206 33.1005 86.1461 33.3894C86.7715 33.6783 87.4809 33.8227 88.2742 33.8227C89.0215 33.8227 89.6984 33.6394 90.3103 33.2727C90.9195 32.9033 91.4069 32.3645 91.7724 31.6534C92.1379 30.9424 92.322 30.0924 92.322 29.1092V27.9593C91.8482 28.8203 91.2255 29.4925 90.4457 29.9786C89.6686 30.4646 88.7914 30.7063 87.8166 30.7063C86.6876 30.7063 85.6777 30.4285 84.7869 29.873C83.8961 29.3175 83.2002 28.5481 82.7075 27.5621C82.212 26.576 81.9629 25.4595 81.9629 24.2068C81.9629 22.9541 82.2282 21.8153 82.7616 20.8293C83.295 19.8432 84.0423 19.0738 85.0035 18.5183C85.9647 17.9628 87.0531 17.6851 88.2742 17.6851C89.4953 17.6851 90.5567 17.9628 91.5098 18.5183V18.5128ZM90.3672 28.0259C90.9845 27.651 91.4637 27.1316 91.8076 26.4649C92.1515 25.8011 92.322 25.0456 92.322 24.2012C92.322 23.3568 92.1515 22.5986 91.8076 21.9264C91.4637 21.2542 90.9845 20.7293 90.3672 20.3543C89.7498 19.9793 89.0513 19.7905 88.2742 19.7905C87.4972 19.7905 86.7986 19.9793 86.1813 20.3543C85.564 20.7293 85.0793 21.2542 84.73 21.9264C84.378 22.5986 84.2048 23.3568 84.2048 24.2012C84.2048 25.0456 84.3807 25.8011 84.73 26.4649C85.0793 27.1316 85.564 27.651 86.1813 28.0259C86.7986 28.4009 87.4972 28.5898 88.2742 28.5898C89.0513 28.5898 89.7498 28.4037 90.3672 28.0259Z" fill="#1E8767"/>
<path d="M97.255 30.2282C97.0411 29.9782 96.9355 29.6894 96.9355 29.3588C96.9355 29.0783 97.0114 28.8367 97.1657 28.6311L108.348 14.4405H98.3327C97.9671 14.4405 97.6855 14.3461 97.4879 14.16C97.2902 13.9739 97.1982 13.7212 97.2144 13.4101C97.1982 13.0823 97.3011 12.8129 97.5231 12.6018C97.7451 12.3907 98.0294 12.2852 98.3814 12.2852H110.181C110.546 12.2852 110.842 12.4074 111.061 12.649C111.283 12.8934 111.394 13.1768 111.394 13.5045C111.394 13.7545 111.31 13.9906 111.142 14.2072L99.9139 28.445H110.181C110.517 28.445 110.796 28.5506 111.015 28.7617C111.234 28.9728 111.345 29.2172 111.345 29.5005C111.345 29.8449 111.24 30.1143 111.026 30.3088C110.812 30.5032 110.53 30.6032 110.181 30.6032H98.1079C97.7559 30.6032 97.4744 30.4782 97.2632 30.2282H97.255Z" fill="#020202"/>
<path d="M123.573 24.7288C123.375 24.9233 123.123 25.0233 122.817 25.0233H114.129C114.296 26.1176 114.781 27.0009 115.58 27.6731C116.381 28.3452 117.359 28.6813 118.518 28.6813C118.975 28.6813 119.452 28.5952 119.947 28.423C120.443 28.2508 120.849 28.0397 121.171 27.7897C121.385 27.6175 121.637 27.5314 121.926 27.5314C122.216 27.5314 122.444 27.6092 122.611 27.7647C122.885 28.0008 123.023 28.2647 123.023 28.5619C123.023 28.8591 122.901 29.0785 122.657 29.2646C122.14 29.6868 121.496 30.0312 120.727 30.2951C119.955 30.5617 119.222 30.695 118.52 30.695C117.269 30.695 116.148 30.4173 115.16 29.8618C114.169 29.3063 113.395 28.5369 112.84 27.5508C112.282 26.5648 112.006 25.4482 112.006 24.1955C112.006 22.9429 112.268 21.8235 112.794 20.8291C113.319 19.8376 114.05 19.0626 114.99 18.5071C115.926 17.9516 116.99 17.6738 118.179 17.6738C119.368 17.6738 120.367 17.9405 121.22 18.471C122.073 19.0015 122.728 19.7459 123.185 20.6986C123.643 21.6513 123.87 22.7484 123.87 23.9817C123.87 24.2789 123.77 24.5261 123.573 24.7205V24.7288ZM115.466 20.6347C114.773 21.2597 114.334 22.0957 114.15 23.1456H121.764C121.626 22.0985 121.247 21.2597 120.621 20.6347C119.996 20.0098 119.181 19.6959 118.174 19.6959C117.061 19.6959 116.157 20.0098 115.463 20.6347H115.466Z" fill="#020202"/>
<path d="M134.869 18.007C135.327 18.2569 135.557 18.5708 135.557 18.9458C135.557 19.0569 135.549 19.1346 135.532 19.1819C135.394 19.6818 135.091 19.9318 134.617 19.9318C134.541 19.9318 134.428 19.9179 134.273 19.8846C133.664 19.7763 133.169 19.7207 132.787 19.7207C131.69 19.7207 130.805 19.979 130.136 20.4957C129.465 21.0123 129.129 21.7067 129.129 22.5844V29.4339C129.129 29.8088 129.034 30.0977 128.845 30.3005C128.652 30.5032 128.368 30.606 127.986 30.606C127.605 30.606 127.339 30.5088 127.142 30.3116C126.944 30.1144 126.844 29.8227 126.844 29.4311V18.9458C126.844 18.5708 126.944 18.2819 127.142 18.0792C127.339 17.8764 127.621 17.7736 127.986 17.7736C128.747 17.7736 129.129 18.1653 129.129 18.9458V19.393C129.587 18.8458 130.15 18.4153 130.821 18.1042C131.493 17.7903 132.207 17.6348 132.971 17.6348C133.778 17.6348 134.411 17.7598 134.869 18.0097V18.007Z" fill="#020202"/>
<path d="M139.442 29.8647C138.481 29.3092 137.733 28.5398 137.2 27.5538C136.666 26.5677 136.398 25.4512 136.398 24.1985C136.398 22.9458 136.664 21.807 137.2 20.821C137.733 19.8349 138.481 19.0655 139.442 18.51C140.403 17.9545 141.491 17.6768 142.712 17.6768C143.934 17.6768 144.995 17.9545 145.948 18.51C146.901 19.0655 147.648 19.8349 148.19 20.821C148.731 21.807 149.002 22.9319 149.002 24.1985C149.002 25.465 148.734 26.5677 148.201 27.5538C147.667 28.5398 146.923 29.3092 145.972 29.8647C145.019 30.4202 143.934 30.698 142.715 30.698C141.497 30.698 140.406 30.4202 139.444 29.8647H139.442ZM144.803 28.0232C145.42 27.6482 145.899 27.1288 146.243 26.4622C146.587 25.7984 146.758 25.0429 146.758 24.1985C146.758 23.3541 146.584 22.5958 146.243 21.9237C145.899 21.2515 145.42 20.7265 144.803 20.3516C144.185 19.9766 143.487 19.7877 142.71 19.7877C141.933 19.7877 141.234 19.9766 140.617 20.3516C140 20.7265 139.515 21.2515 139.166 21.9237C138.814 22.5958 138.64 23.3541 138.64 24.1985C138.64 25.0429 138.816 25.7984 139.166 26.4622C139.515 27.1288 140 27.6482 140.617 28.0232C141.234 28.3982 141.933 28.587 142.71 28.587C143.487 28.587 144.185 28.4009 144.803 28.0232Z" fill="#020202"/>
<path d="M42.9738 37.9999L41.9774 36.6778L45.3619 34.0002L7.07422 33.9252L17.7177 17.0737L18.7844 18.0987L10.0607 32.2587L50.1299 32.3392L42.9738 37.9999Z" fill="#020202"/>
<path d="M39.6171 21.6263L38.5801 20.6624L48.0755 7.1996L6 7.16905L14.0442 2L14.9052 3.41378L11.6615 5.50251L51.2867 5.53028L39.6171 21.6263Z" fill="#020202"/>
<path d="M21.4046 22.7428L16.7422 18.2737L17.7738 17.1377L22.4389 21.6096L21.4046 22.7428Z" fill="#1E8767"/>
<path d="M25.8968 18.7097L25.3445 18.2625C25.3174 18.2347 22.5611 15.3627 22.3039 14.9044C21.3887 13.2351 21.4889 11.0214 22.5449 9.37153C23.4438 7.96608 24.8517 7.2578 26.4004 7.42168C27.5457 7.54667 28.5665 8.1744 29.2678 9.19376C29.9501 10.1826 30.2533 11.4269 30.126 12.699C29.9961 13.9684 29.4492 15.1183 28.58 15.9432L25.8968 18.7069V18.7097ZM23.6089 14.1156C23.8147 14.3961 25.1008 15.7766 25.8752 16.596L27.6622 14.6767L27.673 14.685C28.201 14.1267 28.534 13.3712 28.6206 12.5407C28.71 11.6464 28.5015 10.777 28.0331 10.0965C27.5836 9.44652 26.9474 9.04655 26.2434 8.97156C24.9194 8.8299 24.1477 9.6965 23.812 10.227C23.0701 11.3797 22.9943 12.9796 23.6117 14.1156H23.6089Z" fill="#1E8767"/>
<path d="M34.5604 18.7654L33.962 18.2599C33.9322 18.2321 31.1732 15.3573 30.9214 14.9018C30.0035 13.2325 30.1037 11.0188 31.1597 9.37169C32.0613 7.96624 33.4665 7.25519 35.0179 7.42184C36.1632 7.54683 37.1813 8.17456 37.888 9.19393C38.5703 10.1827 38.8735 11.4271 38.7436 12.6992C38.6136 13.9686 38.0667 15.1212 37.1975 15.9434L34.5658 18.7626L34.5604 18.7654ZM32.2237 14.113C32.4295 14.3935 33.7102 15.7684 34.49 16.5934L36.277 14.6741L36.2851 14.6824C36.8131 14.1269 37.1461 13.3714 37.2327 12.5381C37.3221 11.6437 37.1136 10.7744 36.6425 10.0939C36.1957 9.44391 35.5595 9.04394 34.8528 8.96894C33.5288 8.82451 32.7625 9.69389 32.4214 10.2244C31.6849 11.3771 31.601 12.977 32.221 14.113H32.2237Z" fill="#1E8767"/>
<path d="M21.6847 32.081C21.6062 32.081 21.525 32.081 21.4464 32.0755C19.1098 31.9421 17.3309 29.659 17.4772 26.9897C17.5448 25.7148 18.0403 24.5371 18.8661 23.6705L21.414 20.6597L22.3074 21.4902C23.8697 22.9345 24.8986 23.9289 25.1964 24.4177C26.1793 26.0176 26.182 28.2369 25.2073 29.934C24.4166 31.3061 23.1441 32.0782 21.6874 32.0782L21.6847 32.081ZM19.83 24.8871C19.3291 25.4704 19.034 26.2398 18.9853 27.0758C18.8878 28.8924 20.0304 30.4367 21.5277 30.5228C22.8652 30.5978 23.5854 29.6951 23.8968 29.1479C24.5845 27.9563 24.5899 26.3509 23.913 25.2454C23.6937 24.8871 22.2777 23.5594 21.5439 22.8789L19.8382 24.8955L19.8273 24.8871H19.83Z" fill="#1E8767"/>
<path d="M30.2984 32.0812C30.2171 32.0812 30.1413 32.0812 30.0574 32.0756C28.9121 32.0089 27.8615 31.4312 27.1116 30.448C26.3832 29.4925 26.0204 28.2648 26.0881 26.9899C26.1585 25.715 26.654 24.5373 27.4825 23.6735L30.0276 20.6626L30.9103 21.4848C32.4779 22.9319 33.5095 23.929 33.8074 24.4206C34.7902 26.0205 34.7956 28.2398 33.8209 29.9369C33.0303 31.309 31.7577 32.0812 30.2984 32.0812ZM28.4464 24.8873C27.9482 25.4706 27.6476 26.2427 27.6043 27.076C27.5529 27.9731 27.802 28.8314 28.3056 29.4897C28.7848 30.1174 29.4373 30.4841 30.1467 30.5257C31.4789 30.6007 32.2018 29.6952 32.5186 29.1508C33.2036 27.9593 33.2117 26.3538 32.5294 25.2484C32.3128 24.89 30.8994 23.5679 30.1603 22.8819L28.4572 24.8984L28.4491 24.89L28.4464 24.8873Z" fill="#1E8767"/>
<path d="M38.8503 32.0812C38.7745 32.0812 38.6906 32.0812 38.6121 32.0756C37.4614 32.0089 36.4135 31.4312 35.6635 30.448C34.9379 29.4925 34.5751 28.2648 34.6428 26.9899C34.7105 25.715 35.2087 24.5373 36.0345 23.6735L38.5823 20.6626L39.4677 21.4875C41.0326 22.9346 42.0669 23.9318 42.3648 24.4206C43.3449 26.0233 43.3503 28.2398 42.3729 29.9397C41.585 31.3118 40.3097 32.0839 38.853 32.0839L38.8503 32.0812ZM36.9984 24.8873C36.4948 25.4706 36.2023 26.2399 36.1563 27.076C36.1049 27.9731 36.3567 28.8314 36.8576 29.4897C37.3368 30.1174 37.992 30.4841 38.7014 30.5257C40.0335 30.6007 40.7565 29.698 41.0705 29.1508C41.7528 27.9593 41.761 26.3538 41.0814 25.2456C40.8675 24.8873 39.4514 23.5624 38.715 22.8791L37.0119 24.8956L37.0011 24.8873H36.9984Z" fill="#1E8767"/>
<path d="M21.6248 22.9067L20.5391 21.8262L26.734 15.7378L27.6816 16.7599L21.6248 22.9067Z" fill="#1E8767"/>
<path d="M26.085 16.7606L25.0508 17.8979L29.745 22.3902L30.7793 21.2528L26.085 16.7606Z" fill="#1E8767"/>
<path d="M30.2473 22.879L29.2266 21.8291L34.4549 16.6406L35.4973 17.7683L30.2473 22.879Z" fill="#1E8767"/>
<path d="M16.8917 18.2824H16.7509C16.7238 18.2547 13.9838 15.3604 13.732 14.9049C12.8141 13.2356 12.9143 11.0219 13.9702 9.37202C14.8691 7.96657 16.2744 7.25829 17.8258 7.42217C18.9711 7.54716 19.9891 8.17489 20.6931 9.19425C21.3754 10.1831 21.6787 11.4274 21.5514 12.6995C21.3754 14.4105 19.9214 16.4243 18.787 18.0963M15.0397 14.1133C15.2861 14.455 17.1733 16.4965 17.7202 17.0714C17.8502 16.877 17.9801 16.6909 18.0993 16.5104C19.1552 14.9633 19.9133 13.8494 20.0487 12.5357C20.138 11.6413 19.9323 10.7719 19.4612 10.0914C19.0117 9.44146 18.3781 9.04149 17.6715 8.96649C16.3448 8.82206 15.5785 9.69144 15.2374 10.222C14.4982 11.3774 14.4197 12.9745 15.0397 14.1133Z" fill="#1E8767"/>
<path d="M37.6365 21.8682L32.4082 16.6047L33.4642 15.4937L38.6139 20.7099L37.6365 21.8682Z" fill="#1E8767"/>
</g>
<defs>
<clipPath id="clip0_29722_3736">
<rect width="143" height="36" fill="white" transform="translate(6 2)"/>
</clipPath>
</defs>
</svg>
