<svg width="32" height="32" viewBox="0 0 32 32" fill="none" xmlns="http://www.w3.org/2000/svg">
<path d="M25.7294 28.0532L25.036 27.1331L27.3913 25.2697L0.746094 25.2175L8.15308 13.4902L8.89548 14.2035L2.82442 24.0578L30.7095 24.1138L25.7294 28.0532Z" fill="#020202"/>
<path d="M23.3949 16.6583L22.6732 15.9876L29.2813 6.61851L0 6.59725L5.59811 3L6.1973 3.98388L3.93997 5.43747L31.516 5.4568L23.3949 16.6583Z" fill="#020202"/>
<path d="M10.7212 17.4349L7.47656 14.3248L8.19446 13.5342L11.441 16.6463L10.7212 17.4349Z" fill="#1E8767"/>
<path d="M13.8469 14.6281L13.4625 14.3169C13.4437 14.2976 11.5255 12.2989 11.3465 11.9799C10.7096 10.8182 10.7794 9.27764 11.5142 8.12946C12.1398 7.15138 13.1196 6.65848 14.1974 6.77252C14.9944 6.85951 15.7048 7.29635 16.1928 8.00575C16.6676 8.69389 16.8787 9.55986 16.7901 10.4452C16.6997 11.3285 16.319 12.1288 15.7142 12.7029L13.8469 14.6262V14.6281ZM12.2547 11.431C12.3979 11.6262 13.2929 12.5869 13.8318 13.1571L15.0754 11.8214L15.083 11.8272C15.4504 11.4387 15.6822 10.9129 15.7425 10.335C15.8046 9.71256 15.6596 9.10754 15.3336 8.63397C15.0208 8.18165 14.578 7.90331 14.0881 7.85112C13.1667 7.75253 12.6297 8.35562 12.396 8.72482C11.8798 9.527 11.827 10.6404 12.2566 11.431H12.2547Z" fill="#1E8767"/>
<path d="M19.8727 14.6672L19.4563 14.3154C19.4356 14.2961 17.5155 12.2955 17.3403 11.9784C16.7015 10.8167 16.7712 9.27616 17.5061 8.12992C18.1335 7.15184 19.1115 6.657 20.1912 6.77297C20.9882 6.85996 21.6967 7.29681 22.1885 8.00621C22.6633 8.69434 22.8743 9.56031 22.7839 10.4456C22.6934 11.329 22.3128 12.1312 21.708 12.7033L19.8765 14.6653L19.8727 14.6672ZM18.2466 11.4295C18.3898 11.6247 19.2811 12.5815 19.8237 13.1556L21.0673 11.8199L21.073 11.8257C21.4404 11.4392 21.6722 10.9134 21.7325 10.3335C21.7946 9.71108 21.6496 9.10606 21.3217 8.63249C21.0108 8.18017 20.568 7.90183 20.0762 7.84964C19.1548 7.74912 18.6216 8.35414 18.3842 8.72334C17.8716 9.52552 17.8132 10.6389 18.2447 11.4295H18.2466Z" fill="#1E8767"/>
<path d="M10.9144 23.9342C10.8598 23.9342 10.8033 23.9342 10.7486 23.9303C9.12252 23.8375 7.88457 22.2486 7.98632 20.3911C8.03342 19.5038 8.37824 18.6843 8.95294 18.0812L10.726 15.9858L11.3478 16.5638C12.435 17.5689 13.151 18.2609 13.3583 18.6011C14.0423 19.7145 14.0442 21.259 13.3659 22.44C12.8157 23.3949 11.9301 23.9323 10.9163 23.9323L10.9144 23.9342ZM9.62373 18.9278C9.27515 19.3337 9.06976 19.8692 9.03585 20.451C8.96801 21.7151 9.76317 22.7899 10.8052 22.8498C11.736 22.902 12.2372 22.2738 12.4539 21.893C12.9325 21.0637 12.9362 19.9465 12.4652 19.1772C12.3126 18.9278 11.3271 18.0039 10.8165 17.5303L9.62938 18.9336L9.62185 18.9278H9.62373Z" fill="#1E8767"/>
<path d="M16.9121 23.9342C16.8556 23.9342 16.8029 23.9342 16.7444 23.9303C15.9474 23.884 15.2163 23.4819 14.6944 22.7976C14.1875 22.1327 13.935 21.2783 13.9821 20.3911C14.0311 19.5039 14.3759 18.6843 14.9525 18.0831L16.7237 15.9878L17.338 16.56C18.429 17.567 19.1469 18.261 19.3541 18.6031C20.0381 19.7165 20.0419 21.2609 19.3636 22.442C18.8134 23.3968 17.9278 23.9342 16.9121 23.9342ZM15.6233 18.9278C15.2766 19.3338 15.0675 19.8711 15.0373 20.451C15.0015 21.0754 15.1749 21.6726 15.5253 22.1308C15.8589 22.5676 16.313 22.8228 16.8066 22.8517C17.7337 22.9039 18.2368 22.2738 18.4572 21.8949C18.9339 21.0657 18.9396 19.9484 18.4648 19.1791C18.314 18.9298 17.3305 18.0097 16.8161 17.5322L15.6309 18.9356L15.6252 18.9298L15.6233 18.9278Z" fill="#1E8767"/>
<path d="M22.8595 23.9342C22.8067 23.9342 22.7483 23.9342 22.6937 23.9303C21.8929 23.884 21.1637 23.4819 20.6417 22.7976C20.1367 22.1327 19.8843 21.2783 19.9314 20.3911C19.9785 19.5039 20.3252 18.6843 20.8999 18.0831L22.6729 15.9878L23.2891 16.5619C24.3782 17.569 25.098 18.2629 25.3052 18.6031C25.9873 19.7184 25.9911 21.2609 25.3109 22.4439C24.7626 23.3988 23.8751 23.9361 22.8614 23.9361L22.8595 23.9342ZM21.5707 18.9278C21.2202 19.3338 21.0167 19.8692 20.9847 20.451C20.9489 21.0754 21.1241 21.6726 21.4727 22.1308C21.8062 22.5676 22.2622 22.8228 22.7559 22.8517C23.6829 22.9039 24.186 22.2757 24.4046 21.8949C24.8794 21.0657 24.8851 19.9484 24.4121 19.1772C24.2633 18.9278 23.2778 18.0058 22.7653 17.5303L21.5801 18.9336L21.5725 18.9278H21.5707Z" fill="#1E8767"/>
<path d="M10.8747 17.5495L10.1191 16.7976L14.4303 12.5605L15.0898 13.2719L10.8747 17.5495Z" fill="#1E8767"/>
<path d="M13.9776 13.2715L13.2578 14.063L16.5246 17.1892L17.2444 16.3977L13.9776 13.2715Z" fill="#1E8767"/>
<path d="M16.8725 17.5299L16.1621 16.7993L19.8006 13.1885L20.526 13.9733L16.8725 17.5299Z" fill="#1E8767"/>
<path d="M7.58022 14.3309H7.48223C7.46339 14.3116 5.55653 12.2974 5.3813 11.9804C4.74253 10.8187 4.81225 9.27813 5.54711 8.12995C6.17268 7.15187 7.15061 6.65897 8.23028 6.77301C9.02732 6.85999 9.7358 7.29684 10.2257 8.00624C10.7005 8.69438 10.9116 9.56035 10.823 10.4456C10.7005 11.6363 9.68869 13.0377 8.89919 14.2014M6.29139 11.4295C6.46285 11.6673 7.77618 13.088 8.1568 13.4881C8.24724 13.3528 8.33768 13.2233 8.42059 13.0977C9.15545 12.021 9.68304 11.2459 9.77725 10.3316C9.83943 9.70918 9.69623 9.10417 9.36837 8.63059C9.05558 8.17828 8.61467 7.89993 8.12288 7.84774C7.1996 7.74722 6.66635 8.35224 6.42894 8.72144C5.91454 9.52555 5.85989 10.637 6.29139 11.4295Z" fill="#1E8767"/>
<path d="M22.0174 16.8268L18.3789 13.1638L19.1138 12.3906L22.6976 16.0207L22.0174 16.8268Z" fill="#1E8767"/>
</svg>
