<svg width="44" height="44" viewBox="0 0 44 44" fill="none" xmlns="http://www.w3.org/2000/svg">
<rect x="44" width="44" height="44" rx="22" transform="rotate(90 44 0)" fill="#1AAE50"/>
<path d="M25.4772 22.8899L26.9922 31.4159C27.0092 31.5163 26.9951 31.6195 26.9519 31.7116C26.9086 31.8038 26.8382 31.8806 26.7502 31.9317C26.6621 31.9828 26.5605 32.0058 26.459 31.9976C26.3576 31.9894 26.261 31.9504 26.1822 31.8859L22.6022 29.1989C22.4294 29.0698 22.2195 29 22.0037 29C21.788 29 21.5781 29.0698 21.4052 29.1989L17.8192 31.8849C17.7406 31.9493 17.6441 31.9882 17.5427 31.9964C17.4414 32.0046 17.3399 31.9817 17.2519 31.9308C17.1639 31.8798 17.0935 31.8032 17.0502 31.7112C17.0068 31.6192 16.9925 31.5162 17.0092 31.4159L18.5232 22.8899" stroke="white" stroke-width="1.5" stroke-linecap="round" stroke-linejoin="round"/>
<path d="M22 24C25.3137 24 28 21.3137 28 18C28 14.6863 25.3137 12 22 12C18.6863 12 16 14.6863 16 18C16 21.3137 18.6863 24 22 24Z" stroke="white" stroke-width="1.5" stroke-linecap="round" stroke-linejoin="round"/>
</svg>
