<svg width="45" height="44" viewBox="0 0 45 44" fill="none" xmlns="http://www.w3.org/2000/svg">
<rect x="44.5" width="44" height="44" rx="22" transform="rotate(90 44.5 0)" fill="#9A3FEE"/>
<path d="M25.5 24C25.7 23 26.2 22.3 27 21.5C28 20.6 28.5 19.3 28.5 18C28.5 16.4087 27.8679 14.8826 26.7426 13.7574C25.6174 12.6321 24.0913 12 22.5 12C20.9087 12 19.3826 12.6321 18.2574 13.7574C17.1321 14.8826 16.5 16.4087 16.5 18C16.5 19 16.7 20.2 18 21.5C18.7 22.2 19.3 23 19.5 24" stroke="white" stroke-width="1.5" stroke-linecap="round" stroke-linejoin="round"/>
<path d="M19.5 28H25.5" stroke="white" stroke-width="1.5" stroke-linecap="round" stroke-linejoin="round"/>
<path d="M20.5 32H24.5" stroke="white" stroke-width="1.5" stroke-linecap="round" stroke-linejoin="round"/>
</svg>
