<svg width="44" height="44" viewBox="0 0 44 44" fill="none" xmlns="http://www.w3.org/2000/svg">
<rect x="44" width="44" height="44" rx="22" transform="rotate(90 44 0)" fill="#2E6EEF"/>
<path d="M31.8011 20C32.2578 22.2413 31.9323 24.5714 30.879 26.6018C29.8256 28.6322 28.108 30.24 26.0126 31.1573C23.9172 32.0746 21.5707 32.2458 19.3644 31.6424C17.1581 31.0389 15.2253 29.6974 13.8884 27.8414C12.5515 25.9854 11.8912 23.7272 12.0178 21.4434C12.1443 19.1595 13.05 16.9881 14.5838 15.2912C16.1175 13.5942 18.1867 12.4744 20.4462 12.1184C22.7056 11.7625 25.0189 12.1918 27.0001 13.335" stroke="white" stroke-width="1.5" stroke-linecap="round" stroke-linejoin="round"/>
<path d="M19 21L22 24L32 14" stroke="white" stroke-width="1.5" stroke-linecap="round" stroke-linejoin="round"/>
</svg>
