<svg width="45" height="44" viewBox="0 0 45 44" fill="none" xmlns="http://www.w3.org/2000/svg">
<rect x="44.5" width="44" height="44" rx="22" transform="rotate(90 44.5 0)" fill="#5E6674"/>
<path d="M20.4369 25.5C20.3477 25.1539 20.1673 24.8381 19.9146 24.5854C19.6618 24.3327 19.346 24.1523 18.9999 24.063L12.8649 22.481C12.7603 22.4513 12.6681 22.3883 12.6026 22.3014C12.537 22.2146 12.5015 22.1088 12.5015 22C12.5015 21.8912 12.537 21.7854 12.6026 21.6986C12.6681 21.6118 12.7603 21.5487 12.8649 21.519L18.9999 19.936C19.3459 19.8468 19.6616 19.6666 19.9143 19.414C20.1671 19.1615 20.3475 18.8459 20.4369 18.5L22.0189 12.365C22.0483 12.2599 22.1113 12.1673 22.1983 12.1014C22.2852 12.0355 22.3913 11.9998 22.5004 11.9998C22.6096 11.9998 22.7157 12.0355 22.8026 12.1014C22.8896 12.1673 22.9525 12.2599 22.9819 12.365L24.5629 18.5C24.6522 18.8461 24.8326 19.1619 25.0853 19.4146C25.338 19.6673 25.6539 19.8477 25.9999 19.937L32.1349 21.518C32.2404 21.5471 32.3335 21.61 32.3998 21.6971C32.4661 21.7841 32.502 21.8906 32.502 22C32.502 22.1094 32.4661 22.2159 32.3998 22.3029C32.3335 22.39 32.2404 22.4529 32.1349 22.482L25.9999 24.063C25.6539 24.1523 25.338 24.3327 25.0853 24.5854C24.8326 24.8381 24.6522 25.1539 24.5629 25.5L22.9809 31.635C22.9515 31.7401 22.8886 31.8327 22.8016 31.8986C22.7147 31.9646 22.6086 32.0003 22.4994 32.0003C22.3903 32.0003 22.2842 31.9646 22.1973 31.8986C22.1103 31.8327 22.0473 31.7401 22.0179 31.635L20.4369 25.5Z" stroke="white" stroke-width="1.5" stroke-linecap="round" stroke-linejoin="round"/>
<path d="M30.5 13V17" stroke="white" stroke-width="1.5" stroke-linecap="round" stroke-linejoin="round"/>
<path d="M32.5 15H28.5" stroke="white" stroke-width="1.5" stroke-linecap="round" stroke-linejoin="round"/>
<path d="M14.5 27V29" stroke="white" stroke-width="1.5" stroke-linecap="round" stroke-linejoin="round"/>
<path d="M15.5 28H13.5" stroke="white" stroke-width="1.5" stroke-linecap="round" stroke-linejoin="round"/>
</svg>
