<svg width="45" height="44" viewBox="0 0 45 44" fill="none" xmlns="http://www.w3.org/2000/svg">
<rect x="44.5" width="44" height="44" rx="22" transform="rotate(90 44.5 0)" fill="#A759EE"/>
<path d="M27.9999 29H19.4999C18.2018 28.9997 16.9293 28.6384 15.8247 27.9565C14.7201 27.2746 13.8268 26.2989 13.2448 25.1386C12.6627 23.9783 12.4148 22.679 12.5287 21.3858C12.6426 20.0927 13.1138 18.8567 13.8898 17.816C14.6657 16.7753 15.7157 15.9708 16.9225 15.4925C18.1293 15.0142 19.4454 14.8809 20.7236 15.1075C22.0018 15.3341 23.1918 15.9116 24.1606 16.7756C25.1295 17.6396 25.839 18.756 26.2099 20H27.9999C29.1934 20 30.338 20.4741 31.1819 21.318C32.0258 22.1619 32.4999 23.3065 32.4999 24.5C32.4999 25.6935 32.0258 26.8381 31.1819 27.682C30.338 28.5259 29.1934 29 27.9999 29Z" stroke="white" stroke-width="1.5" stroke-linecap="round" stroke-linejoin="round"/>
</svg>
