<svg width="44" height="44" viewBox="0 0 44 44" fill="none" xmlns="http://www.w3.org/2000/svg">
<rect x="44" width="44" height="44" rx="22" transform="rotate(90 44 0)" fill="#5E6674"/>
<path d="M14 15C14 14.998 13.997 14.981 14.035 14.919C14.078 14.849 14.165 14.745 14.326 14.618C14.656 14.358 15.196 14.079 15.952 13.828C17.454 13.326 19.592 13 22 13C24.408 13 26.546 13.327 28.048 13.827C28.804 14.079 29.344 14.357 29.674 14.617C29.836 14.745 29.922 14.849 29.964 14.919C30.004 14.982 30 15 30 15C30 15.003 30.003 15.02 29.965 15.081C29.922 15.151 29.835 15.255 29.674 15.382C29.344 15.642 28.804 15.921 28.048 16.172C26.546 16.674 24.408 17 22 17C19.592 17 17.454 16.673 15.952 16.173C15.196 15.921 14.656 15.643 14.326 15.383C14.2124 15.3001 14.1142 15.1979 14.036 15.081C13.997 15.021 14 15.003 14 15ZM30 17.527V22L29.997 22.015C29.9891 22.0382 29.9783 22.0604 29.965 22.081C29.922 22.151 29.835 22.255 29.674 22.382C29.344 22.642 28.804 22.921 28.048 23.172C26.546 23.673 24.408 24 22 24C19.592 24 17.454 23.673 15.952 23.173C15.196 22.921 14.656 22.643 14.326 22.383C14.2124 22.3001 14.1142 22.1979 14.036 22.081C14.0223 22.0604 14.0112 22.0383 14.003 22.015L14 22V17.527C14.4259 17.7405 14.8671 17.922 15.32 18.07C17.075 18.655 19.437 19 22 19C24.563 19 26.925 18.655 28.68 18.07C29.133 17.9224 29.5742 17.7408 30 17.527ZM30 24.527V29L29.997 29.015C29.9891 29.0382 29.9783 29.0604 29.965 29.081C29.922 29.151 29.835 29.255 29.674 29.382C29.344 29.642 28.804 29.921 28.048 30.172C26.546 30.673 24.408 31 22 31C19.592 31 17.454 30.673 15.952 30.173C15.196 29.921 14.656 29.643 14.326 29.383C14.2124 29.3001 14.1142 29.1979 14.036 29.081C14.0223 29.0604 14.0112 29.0383 14.003 29.015L14 29V24.527C14.4258 24.7408 14.867 24.9224 15.32 25.07C17.075 25.655 19.437 26 22 26C24.563 26 26.925 25.655 28.68 25.07C29.133 24.9224 29.5742 24.7408 30 24.527ZM12 29C12 29.852 12.519 30.504 13.088 30.953C13.669 31.411 14.448 31.779 15.32 32.07C17.075 32.655 19.437 33 22 33C24.563 33 26.925 32.655 28.68 32.07C29.553 31.78 30.331 31.41 30.912 30.953C31.482 30.504 32 29.852 32 29V15C32 14.148 31.481 13.496 30.912 13.047C30.331 12.589 29.552 12.221 28.68 11.93C26.925 11.345 24.563 11 22 11C19.437 11 17.075 11.345 15.32 11.93C14.447 12.22 13.669 12.59 13.088 13.047C12.518 13.496 12 14.148 12 15V29Z" fill="white"/>
</svg>
