<svg width="57" height="57" viewBox="0 0 57 57" fill="none" xmlns="http://www.w3.org/2000/svg">
<rect x="0.5" y="0.717773" width="56" height="56" rx="28" fill="#9A3FEE"/>
<path d="M32.5 37.7178V35.7178C32.5 34.6569 32.0786 33.6395 31.3284 32.8893C30.5783 32.1392 29.5609 31.7178 28.5 31.7178H22.5C21.4391 31.7178 20.4217 32.1392 19.6716 32.8893C18.9214 33.6395 18.5 34.6569 18.5 35.7178V37.7178" stroke="white" stroke-width="1.75" stroke-linecap="round" stroke-linejoin="round"/>
<path d="M32.5 19.8458C33.3578 20.0682 34.1174 20.5691 34.6597 21.2699C35.202 21.9707 35.4962 22.8317 35.4962 23.7178C35.4962 24.6039 35.202 25.465 34.6597 26.1658C34.1174 26.8666 33.3578 27.3675 32.5 27.5898" stroke="white" stroke-width="1.75" stroke-linecap="round" stroke-linejoin="round"/>
<path d="M38.5 37.7178V35.7178C38.4993 34.8315 38.2044 33.9706 37.6614 33.2701C37.1184 32.5696 36.3581 32.0693 35.5 31.8478" stroke="white" stroke-width="1.75" stroke-linecap="round" stroke-linejoin="round"/>
<path d="M25.5 27.7178C27.7091 27.7178 29.5 25.9269 29.5 23.7178C29.5 21.5086 27.7091 19.7178 25.5 19.7178C23.2909 19.7178 21.5 21.5086 21.5 23.7178C21.5 25.9269 23.2909 27.7178 25.5 27.7178Z" stroke="white" stroke-width="1.75" stroke-linecap="round" stroke-linejoin="round"/>
</svg>
