<svg width="44" height="44" viewBox="0 0 44 44" fill="none" xmlns="http://www.w3.org/2000/svg">
<rect x="44" width="44" height="44" rx="22" transform="rotate(90 44 0)" fill="#1AAE50"/>
<path d="M14.4839 16.219V28.359C14.4838 28.7387 14.5584 29.1147 14.7037 29.4655C14.8489 29.8163 15.0619 30.1351 15.3303 30.4036C15.5988 30.672 15.9176 30.885 16.2684 31.0302C16.6192 31.1755 16.9952 31.2501 17.3749 31.25H26.6249C27.3914 31.25 28.1264 30.9455 28.6684 30.4036C29.2104 29.8616 29.5149 29.1265 29.5149 28.36V16.218" stroke="white" stroke-width="2" stroke-linecap="round" stroke-linejoin="round"/>
<path d="M18.5309 19.688L18.8899 20.393C19.129 20.8756 19.4982 21.2818 19.9558 21.5657C20.4134 21.8497 20.9413 22.0001 21.4799 22H22.5199C23.0585 22.0001 23.5863 21.8497 24.044 21.5657C24.5016 21.2818 24.8708 20.8756 25.1099 20.393L25.4689 19.688M29.5159 16.219L26.3819 13.085C26.1636 12.8693 25.8688 12.7488 25.5619 12.75H18.4379C18.1307 12.7485 17.8354 12.869 17.6169 13.085L14.4839 16.22L29.5159 16.219Z" stroke="white" stroke-width="2" stroke-linecap="round" stroke-linejoin="round"/>
</svg>
