<svg width="45" height="45" viewBox="0 0 45 45" fill="none" xmlns="http://www.w3.org/2000/svg">
<rect x="44.5" y="0.717773" width="44" height="44" rx="22" transform="rotate(90 44.5 0.717773)" fill="#1AAE50"/>
<path d="M26 21C26 22.0609 25.5786 23.0783 24.8284 23.8284C24.0783 24.5786 23.0609 25 22 25C20.9391 25 19.9217 24.5786 19.1716 23.8284C18.4214 23.0783 18 22.0609 18 21" stroke="white" stroke-width="1.75" stroke-linecap="round" stroke-linejoin="round"/>
<path d="M13.103 17.0341H30.897" stroke="white" stroke-width="1.75" stroke-linecap="round" stroke-linejoin="round"/>
<path d="M13.4 16.467C13.1404 16.8132 13 17.2343 13 17.667V31C13 31.5304 13.2107 32.0391 13.5858 32.4142C13.9609 32.7893 14.4696 33 15 33H29C29.5304 33 30.0391 32.7893 30.4142 32.4142C30.7893 32.0391 31 31.5304 31 31V17.667C31 17.2343 30.8596 16.8132 30.6 16.467L28.6 13.8C28.4137 13.5516 28.1721 13.35 27.8944 13.2111C27.6167 13.0723 27.3105 13 27 13H17C16.6895 13 16.3833 13.0723 16.1056 13.2111C15.8279 13.35 15.5863 13.5516 15.4 13.8L13.4 16.467Z" stroke="white" stroke-width="1.75" stroke-linecap="round" stroke-linejoin="round"/>
</svg>
