<svg width="45" height="44" viewBox="0 0 45 44" fill="none" xmlns="http://www.w3.org/2000/svg">
<rect x="44.5" width="44" height="44" rx="22" transform="rotate(90 44.5 0)" fill="#3B82F6"/>
<path d="M31.92 20.922C32.0991 20.843 32.251 20.7133 32.357 20.5488C32.463 20.3843 32.5184 20.1924 32.5164 19.9967C32.5143 19.8011 32.455 19.6103 32.3456 19.4481C32.2362 19.2858 32.0817 19.1592 31.901 19.084L23.33 15.18C23.0695 15.0611 22.7864 14.9996 22.5 14.9996C22.2137 14.9996 21.9306 15.0611 21.67 15.18L13.1 19.08C12.922 19.158 12.7706 19.2861 12.6642 19.4488C12.5579 19.6115 12.5012 19.8016 12.5012 19.996C12.5012 20.1903 12.5579 20.3805 12.6642 20.5432C12.7706 20.7059 12.922 20.834 13.1 20.912L21.67 24.82C21.9306 24.9388 22.2137 25.0003 22.5 25.0003C22.7864 25.0003 23.0695 24.9388 23.33 24.82L31.92 20.922Z" stroke="white" stroke-width="1.5" stroke-linecap="round" stroke-linejoin="round"/>
<path d="M32.5 20V26" stroke="white" stroke-width="1.5" stroke-linecap="round" stroke-linejoin="round"/>
<path d="M16.5 22.5V26C16.5 26.7956 17.1321 27.5587 18.2574 28.1213C19.3826 28.6839 20.9087 29 22.5 29C24.0913 29 25.6174 28.6839 26.7426 28.1213C27.8679 27.5587 28.5 26.7956 28.5 26V22.5" stroke="white" stroke-width="1.5" stroke-linecap="round" stroke-linejoin="round"/>
</svg>
