<svg width="45" height="45" viewBox="0 0 45 45" fill="none" xmlns="http://www.w3.org/2000/svg">
<g clip-path="url(#clip0_21604_5757)">
<rect x="44.5" y="0.717773" width="44" height="44" rx="22" transform="rotate(90 44.5 0.717773)" fill="#57B99F"/>
<path d="M31.42 21.6398C31.5991 21.5608 31.751 21.431 31.857 21.2666C31.963 21.1021 32.0184 20.9102 32.0164 20.7145C32.0143 20.5188 31.955 20.3281 31.8456 20.1658C31.7362 20.0036 31.5817 19.877 31.401 19.8018L22.83 15.8978C22.5695 15.7789 22.2864 15.7174 22 15.7174C21.7137 15.7174 21.4306 15.7789 21.17 15.8978L12.6 19.7978C12.422 19.8757 12.2706 20.0039 12.1642 20.1666C12.0579 20.3293 12.0012 20.5194 12.0012 20.7138C12.0012 20.9081 12.0579 21.0983 12.1642 21.2609C12.2706 21.4236 12.422 21.5518 12.6 21.6298L21.17 25.5378C21.4306 25.6566 21.7137 25.7181 22 25.7181C22.2864 25.7181 22.5695 25.6566 22.83 25.5378L31.42 21.6398Z" stroke="white" stroke-width="1.5" stroke-linecap="round" stroke-linejoin="round"/>
<path d="M32 20.7178V26.7178" stroke="white" stroke-width="1.5" stroke-linecap="round" stroke-linejoin="round"/>
<path d="M16 23.2178V26.7178C16 27.5134 16.6321 28.2765 17.7574 28.8391C18.8826 29.4017 20.4087 29.7178 22 29.7178C23.5913 29.7178 25.1174 29.4017 26.2426 28.8391C27.3679 28.2765 28 27.5134 28 26.7178V23.2178" stroke="white" stroke-width="1.5" stroke-linecap="round" stroke-linejoin="round"/>
</g>
<defs>
<clipPath id="clip0_21604_5757">
<rect x="44.5" y="0.717773" width="44" height="44" rx="22" transform="rotate(90 44.5 0.717773)" fill="white"/>
</clipPath>
</defs>
</svg>
