<svg width="44" height="44" viewBox="0 0 44 44" fill="none" xmlns="http://www.w3.org/2000/svg">
<rect x="44" width="44" height="44" rx="22" transform="rotate(90 44 0)" fill="#5BC2A7"/>
<path d="M30 23C30 28 26.5 30.5 22.34 31.95C22.1222 32.0238 21.8855 32.0203 21.67 31.94C17.5 30.5 14 28 14 23V16C14 15.7348 14.1054 15.4804 14.2929 15.2929C14.4804 15.1053 14.7348 15 15 15C17 15 19.5 13.8 21.24 12.28C21.4519 12.099 21.7214 11.9995 22 11.9995C22.2786 11.9995 22.5481 12.099 22.76 12.28C24.51 13.81 27 15 29 15C29.2652 15 29.5196 15.1053 29.7071 15.2929C29.8946 15.4804 30 15.7348 30 16V23Z" stroke="white" stroke-width="1.5" stroke-linecap="round" stroke-linejoin="round"/>
</svg>
