<svg width="45" height="44" viewBox="0 0 45 44" fill="none" xmlns="http://www.w3.org/2000/svg">
<rect x="44.5" width="44" height="44" rx="22" transform="rotate(90 44.5 0)" fill="#22C55E"/>
<path d="M21.5 25H23.5C24.0304 25 24.5391 24.7893 24.9142 24.4142C25.2893 24.0391 25.5 23.5304 25.5 23C25.5 22.4696 25.2893 21.9609 24.9142 21.5858C24.5391 21.2107 24.0304 21 23.5 21H20.5C19.9 21 19.4 21.2 19.1 21.6L13.5 27" stroke="white" stroke-width="1.5" stroke-linecap="round" stroke-linejoin="round"/>
<path d="M17.5 31L19.1 29.6C19.4 29.2 19.9 29 20.5 29H24.5C25.6 29 26.6 28.6 27.3 27.8L31.9 23.4C32.2859 23.0354 32.5111 22.5323 32.5261 22.0016C32.5411 21.4709 32.3447 20.9559 31.98 20.57C31.6153 20.1841 31.1123 19.9589 30.5816 19.9439C30.0508 19.9289 29.5359 20.1254 29.15 20.49L24.95 24.39" stroke="white" stroke-width="1.5" stroke-linecap="round" stroke-linejoin="round"/>
<path d="M12.5 26L18.5 32" stroke="white" stroke-width="1.5" stroke-linecap="round" stroke-linejoin="round"/>
<path d="M26.5 21.9C28.1016 21.9 29.4 20.6016 29.4 19C29.4 17.3983 28.1016 16.1 26.5 16.1C24.8983 16.1 23.6 17.3983 23.6 19C23.6 20.6016 24.8983 21.9 26.5 21.9Z" stroke="white" stroke-width="1.5" stroke-linecap="round" stroke-linejoin="round"/>
<path d="M16.5 18C18.1569 18 19.5 16.6569 19.5 15C19.5 13.3431 18.1569 12 16.5 12C14.8431 12 13.5 13.3431 13.5 15C13.5 16.6569 14.8431 18 16.5 18Z" stroke="white" stroke-width="1.5" stroke-linecap="round" stroke-linejoin="round"/>
</svg>
