<svg width="45" height="44" viewBox="0 0 45 44" fill="none" xmlns="http://www.w3.org/2000/svg">
<rect x="44.5" width="44" height="44" rx="22" transform="rotate(90 44.5 0)" fill="#EF4444"/>
<path d="M24 29.5L22.5 31L15.5 24C14 22.55 12.5 20.8 12.5 18.5C12.5 17.0413 13.0795 15.6424 14.1109 14.6109C15.1424 13.5795 16.5413 13 18 13C19.76 13 21 13.5 22.5 15C24 13.5 25.24 13 27 13C27.8064 13.0009 28.6028 13.1792 29.3327 13.5222C30.0626 13.8651 30.7081 14.3644 31.2236 14.9846C31.739 15.6048 32.1118 16.3308 32.3154 17.1111C32.5191 17.8914 32.5486 18.707 32.402 19.5" stroke="white" stroke-width="1.5" stroke-linecap="round" stroke-linejoin="round"/>
<path d="M25.5 25H31.5" stroke="white" stroke-width="1.5" stroke-linecap="round" stroke-linejoin="round"/>
<path d="M28.5 22V28" stroke="white" stroke-width="1.5" stroke-linecap="round" stroke-linejoin="round"/>
</svg>
