<svg width="45" height="44" viewBox="0 0 45 44" fill="none" xmlns="http://www.w3.org/2000/svg">
<rect x="44.5" width="44" height="44" rx="22" transform="rotate(90 44.5 0)" fill="#F97316"/>
<path d="M22.5 26H22.51" stroke="white" stroke-width="1.5" stroke-linecap="round" stroke-linejoin="round"/>
<path d="M26.5 26H26.51" stroke="white" stroke-width="1.5" stroke-linecap="round" stroke-linejoin="round"/>
<path d="M13.5 29C13.5 29.5304 13.7107 30.0391 14.0858 30.4142C14.4609 30.7893 14.9696 31 15.5 31H29.5C30.0304 31 30.5391 30.7893 30.9142 30.4142C31.2893 30.0391 31.5 29.5304 31.5 29V18.5C31.5001 18.4103 31.4761 18.3222 31.4304 18.245C31.3848 18.1678 31.3192 18.1043 31.2405 18.0611C31.1619 18.018 31.0731 17.9968 30.9835 17.9997C30.8938 18.0027 30.8066 18.0297 30.731 18.078L26.269 20.922C26.1934 20.9703 26.1062 20.9973 26.0165 21.0003C25.9269 21.0032 25.8381 20.982 25.7595 20.9389C25.6808 20.8957 25.6152 20.8322 25.5696 20.755C25.5239 20.6778 25.4999 20.5897 25.5 20.5V18.5C25.5001 18.4103 25.4761 18.3222 25.4304 18.245C25.3848 18.1678 25.3192 18.1043 25.2405 18.0611C25.1619 18.018 25.0731 17.9968 24.9835 17.9997C24.8938 18.0027 24.8066 18.0297 24.731 18.078L20.27 20.922C20.1944 20.9705 20.1071 20.9978 20.0173 21.0009C19.9275 21.004 19.8385 20.9828 19.7597 20.9396C19.6809 20.8965 19.6152 20.8328 19.5695 20.7555C19.5238 20.6781 19.4998 20.5899 19.5 20.5V15C19.5 14.4696 19.2893 13.9609 18.9142 13.5858C18.5391 13.2107 18.0304 13 17.5 13H15.5C14.9696 13 14.4609 13.2107 14.0858 13.5858C13.7107 13.9609 13.5 14.4696 13.5 15V29Z" stroke="white" stroke-width="1.5" stroke-linecap="round" stroke-linejoin="round"/>
<path d="M18.5 26H18.51" stroke="white" stroke-width="1.5" stroke-linecap="round" stroke-linejoin="round"/>
</svg>
