<svg width="56" height="56" viewBox="0 0 56 56" fill="none" xmlns="http://www.w3.org/2000/svg">
<rect width="56" height="56" rx="28" fill="#55BF7C"/>
<path d="M35.5 26C35.5 30.993 29.961 36.193 28.101 37.799C27.9277 37.9293 27.7168 37.9998 27.5 37.9998C27.2832 37.9998 27.0723 37.9293 26.899 37.799C25.039 36.193 19.5 30.993 19.5 26C19.5 23.8783 20.3429 21.8434 21.8431 20.3431C23.3434 18.8429 25.3783 18 27.5 18C29.6217 18 31.6566 18.8429 33.1569 20.3431C34.6571 21.8434 35.5 23.8783 35.5 26Z" stroke="white" stroke-width="1.5" stroke-linecap="round" stroke-linejoin="round"/>
<path d="M27.5 29C29.1569 29 30.5 27.6569 30.5 26C30.5 24.3431 29.1569 23 27.5 23C25.8431 23 24.5 24.3431 24.5 26C24.5 27.6569 25.8431 29 27.5 29Z" stroke="white" stroke-width="1.5" stroke-linecap="round" stroke-linejoin="round"/>
</svg>
