<svg width="44" height="44" viewBox="0 0 44 44" fill="none" xmlns="http://www.w3.org/2000/svg">
<rect x="44" width="44" height="44" rx="22" transform="rotate(90 44 0)" fill="#11A999"/>
<path d="M22 31C23.1819 31 24.3522 30.7672 25.4442 30.3149C26.5361 29.8626 27.5282 29.1997 28.364 28.364C29.1997 27.5282 29.8626 26.5361 30.3149 25.4442C30.7672 24.3522 31 23.1819 31 22C31 20.8181 30.7672 19.6478 30.3149 18.5558C29.8626 17.4639 29.1997 16.4718 28.364 15.636C27.5282 14.8003 26.5361 14.1374 25.4442 13.6851C24.3522 13.2328 23.1819 13 22 13M22 31C20.8181 31 19.6478 30.7672 18.5558 30.3149C17.4639 29.8626 16.4718 29.1997 15.636 28.364C14.8003 27.5282 14.1374 26.5361 13.6851 25.4442C13.2328 24.3522 13 23.1819 13 22C13 20.8181 13.2328 19.6478 13.6851 18.5558C14.1374 17.4639 14.8003 16.4718 15.636 15.636C16.4718 14.8003 17.4639 14.1374 18.5558 13.6851C19.6478 13.2328 20.8181 13 22 13M22 31C24.761 31 25.941 25.837 25.941 22C25.941 18.163 24.761 13 22 13M22 31C19.239 31 18.059 25.837 18.059 22C18.059 18.163 19.239 13 22 13M13.5 19H30.5M13.5 25H30.5" stroke="white" stroke-width="1.5" stroke-linecap="round" stroke-linejoin="round"/>
</svg>
