<svg width="45" height="44" viewBox="0 0 45 44" fill="none" xmlns="http://www.w3.org/2000/svg">
<rect x="44.5" width="44" height="44" rx="22" transform="rotate(90 44.5 0)" fill="#1AAE50"/>
<path d="M25.5 12H16.5C15.9696 12 15.4609 12.2107 15.0858 12.5858C14.7107 12.9609 14.5 13.4696 14.5 14V30C14.5 30.5304 14.7107 31.0391 15.0858 31.4142C15.4609 31.7893 15.9696 32 16.5 32H28.5C29.0304 32 29.5391 31.7893 29.9142 31.4142C30.2893 31.0391 30.5 30.5304 30.5 30V17L25.5 12Z" stroke="white" stroke-width="1.5" stroke-linecap="round" stroke-linejoin="round"/>
<path d="M24.5 12V16C24.5 16.5304 24.7107 17.0391 25.0858 17.4142C25.4609 17.7893 25.9696 18 26.5 18H30.5" stroke="white" stroke-width="1.5" stroke-linecap="round" stroke-linejoin="round"/>
<path d="M20.5 19H18.5" stroke="white" stroke-width="1.5" stroke-linecap="round" stroke-linejoin="round"/>
<path d="M26.5 23H18.5" stroke="white" stroke-width="1.5" stroke-linecap="round" stroke-linejoin="round"/>
<path d="M26.5 27H18.5" stroke="white" stroke-width="1.5" stroke-linecap="round" stroke-linejoin="round"/>
</svg>
