<svg width="44" height="44" viewBox="0 0 44 44" fill="none" xmlns="http://www.w3.org/2000/svg">
<rect x="44" width="44" height="44" rx="22" transform="rotate(90 44 0)" fill="#5BC2A7"/>
<path d="M29 24C30.49 22.54 32 20.79 32 18.5C32 17.0413 31.4205 15.6424 30.3891 14.6109C29.3576 13.5795 27.9587 13 26.5 13C24.74 13 23.5 13.5 22 15C20.5 13.5 19.26 13 17.5 13C16.0413 13 14.6424 13.5795 13.6109 14.6109C12.5795 15.6424 12 17.0413 12 18.5C12 20.8 13.5 22.55 15 24L22 31L29 24Z" stroke="white" stroke-width="1.5" stroke-linecap="round" stroke-linejoin="round"/>
<path d="M22.0001 15L19.0401 17.96C18.8369 18.1617 18.6757 18.4016 18.5656 18.6659C18.4556 18.9302 18.3989 19.2137 18.3989 19.5C18.3989 19.7863 18.4556 20.0698 18.5656 20.3341C18.6757 20.5984 18.8369 20.8383 19.0401 21.04C19.8601 21.86 21.1701 21.89 22.0401 21.11L24.1101 19.21C24.629 18.7392 25.3045 18.4784 26.0051 18.4784C26.7057 18.4784 27.3813 18.7392 27.9001 19.21L30.8601 21.87" stroke="white" stroke-width="1.5" stroke-linecap="round" stroke-linejoin="round"/>
<path d="M28 25L26 23" stroke="white" stroke-width="1.5" stroke-linecap="round" stroke-linejoin="round"/>
<path d="M25 28L23 26" stroke="white" stroke-width="1.5" stroke-linecap="round" stroke-linejoin="round"/>
</svg>
