<svg width="57" height="56" viewBox="0 0 57 56" fill="none" xmlns="http://www.w3.org/2000/svg">
<rect x="0.5" width="56" height="56" rx="28" fill="#3C74ED"/>
<path d="M29.832 32.568C30.0385 32.6628 30.2712 32.6845 30.4917 32.6294C30.7122 32.5744 30.9073 32.4458 31.045 32.265L31.4 31.8C31.5863 31.5516 31.8279 31.35 32.1056 31.2111C32.3833 31.0723 32.6895 31 33 31H36C36.5304 31 37.0391 31.2107 37.4142 31.5858C37.7893 31.9609 38 32.4696 38 33V36C38 36.5304 37.7893 37.0391 37.4142 37.4142C37.0391 37.7893 36.5304 38 36 38C31.2261 38 26.6477 36.1036 23.2721 32.7279C19.8964 29.3523 18 24.7739 18 20C18 19.4696 18.2107 18.9609 18.5858 18.5858C18.9609 18.2107 19.4696 18 20 18H23C23.5304 18 24.0391 18.2107 24.4142 18.5858C24.7893 18.9609 25 19.4696 25 20V23C25 23.3105 24.9277 23.6167 24.7889 23.8944C24.65 24.1721 24.4484 24.4137 24.2 24.6L23.732 24.951C23.5484 25.0912 23.419 25.2906 23.3658 25.5154C23.3126 25.7401 23.3388 25.9764 23.44 26.184C24.8067 28.9599 27.0544 31.2048 29.832 32.568Z" stroke="white" stroke-width="1.5" stroke-linecap="round" stroke-linejoin="round"/>
</svg>
