<svg width="57" height="57" viewBox="0 0 57 57" fill="none" xmlns="http://www.w3.org/2000/svg">
<rect x="0.5" y="0.717773" width="56" height="56" rx="28" fill="#11A999"/>
<path d="M35.5 30.7178C36.99 29.2578 38.5 27.5078 38.5 25.2178C38.5 23.7591 37.9205 22.3601 36.8891 21.3287C35.8576 20.2972 34.4587 19.7178 33 19.7178C31.24 19.7178 30 20.2178 28.5 21.7178C27 20.2178 25.76 19.7178 24 19.7178C22.5413 19.7178 21.1424 20.2972 20.1109 21.3287C19.0795 22.3601 18.5 23.7591 18.5 25.2178C18.5 27.5178 20 29.2678 21.5 30.7178L28.5 37.7178L35.5 30.7178Z" stroke="white" stroke-width="1.5" stroke-linecap="round" stroke-linejoin="round"/>
<path d="M28.5001 21.7178L25.5401 24.6778C25.3369 24.8795 25.1757 25.1194 25.0656 25.3837C24.9556 25.648 24.8989 25.9315 24.8989 26.2178C24.8989 26.5041 24.9556 26.7875 25.0656 27.0518C25.1757 27.3162 25.3369 27.5561 25.5401 27.7578C26.3601 28.5778 27.6701 28.6078 28.5401 27.8278L30.6101 25.9278C31.129 25.457 31.8045 25.1962 32.5051 25.1962C33.2057 25.1962 33.8813 25.457 34.4001 25.9278L37.3601 28.5878" stroke="white" stroke-width="1.5" stroke-linecap="round" stroke-linejoin="round"/>
<path d="M34.5 31.7178L32.5 29.7178" stroke="white" stroke-width="1.5" stroke-linecap="round" stroke-linejoin="round"/>
<path d="M31.5 34.7178L29.5 32.7178" stroke="white" stroke-width="1.5" stroke-linecap="round" stroke-linejoin="round"/>
</svg>
