<svg width="57" height="57" viewBox="0 0 57 57" fill="none" xmlns="http://www.w3.org/2000/svg">
<rect x="0.5" y="0.717773" width="56" height="56" rx="28" fill="#E33030"/>
<path d="M26.5 31.3778V33.0038C26.4962 33.3464 26.4045 33.6823 26.2336 33.9793C26.0627 34.2763 25.8183 34.5244 25.524 34.6998C24.8991 35.1626 24.3908 35.7648 24.0395 36.4585C23.6881 37.1522 23.5034 37.9182 23.5 38.6958" stroke="white" stroke-width="1.5" stroke-linecap="round" stroke-linejoin="round"/>
<path d="M30.5 31.3778V33.0038C30.5038 33.3464 30.5955 33.6823 30.7664 33.9793C30.9373 34.2763 31.1817 34.5244 31.476 34.6998C32.1009 35.1626 32.6092 35.7648 32.9605 36.4585C33.3119 37.1522 33.4966 37.9182 33.5 38.6958" stroke="white" stroke-width="1.5" stroke-linecap="round" stroke-linejoin="round"/>
<path d="M34.5 25.7178H36C36.663 25.7178 37.2989 25.4544 37.7678 24.9855C38.2366 24.5167 38.5 23.8808 38.5 23.2178C38.5 22.5547 38.2366 21.9188 37.7678 21.45C37.2989 20.9812 36.663 20.7178 36 20.7178H34.5" stroke="white" stroke-width="1.5" stroke-linecap="round" stroke-linejoin="round"/>
<path d="M20.5 38.7178H36.5" stroke="white" stroke-width="1.5" stroke-linecap="round" stroke-linejoin="round"/>
<path d="M22.5 25.7178C22.5 27.3091 23.1321 28.8352 24.2574 29.9604C25.3826 31.0856 26.9087 31.7178 28.5 31.7178C30.0913 31.7178 31.6174 31.0856 32.7426 29.9604C33.8679 28.8352 34.5 27.3091 34.5 25.7178V19.7178C34.5 19.4526 34.3946 19.1982 34.2071 19.0107C34.0196 18.8231 33.7652 18.7178 33.5 18.7178H23.5C23.2348 18.7178 22.9804 18.8231 22.7929 19.0107C22.6054 19.1982 22.5 19.4526 22.5 19.7178V25.7178Z" stroke="white" stroke-width="1.5" stroke-linecap="round" stroke-linejoin="round"/>
<path d="M22.5 25.7178H21C20.337 25.7178 19.7011 25.4544 19.2322 24.9855C18.7634 24.5167 18.5 23.8808 18.5 23.2178C18.5 22.5547 18.7634 21.9188 19.2322 21.45C19.7011 20.9812 20.337 20.7178 21 20.7178H22.5" stroke="white" stroke-width="1.5" stroke-linecap="round" stroke-linejoin="round"/>
</svg>
