<svg width="52" height="52" viewBox="0 0 52 52" fill="none" xmlns="http://www.w3.org/2000/svg">
<path d="M28.4375 37.3748L28.4375 19.4998C28.4402 16.9148 29.4683 14.4364 31.2962 12.6085C33.1241 10.7806 35.6025 9.75251 38.1875 9.74982C38.6185 9.74982 39.0318 9.92102 39.3366 10.2258C39.6413 10.5305 39.8125 10.9438 39.8125 11.3748C39.8125 11.8058 39.6413 12.2191 39.3366 12.5239C39.0318 12.8286 38.6185 12.9998 38.1875 12.9998C36.4636 12.9998 34.8103 13.6846 33.5913 14.9036C32.3723 16.1226 31.6875 17.7759 31.6875 19.4998L31.6875 21.1248L43.875 21.1248C44.737 21.1248 45.5636 21.4672 46.1731 22.0767C46.7826 22.6862 47.125 23.5129 47.125 24.3748L47.125 37.3748C47.125 38.2368 46.7826 39.0634 46.1731 39.6729C45.5636 40.2824 44.737 40.6248 43.875 40.6248L31.6875 40.6248C30.8255 40.6248 29.9989 40.2824 29.3894 39.6729C28.7799 39.0634 28.4375 38.2368 28.4375 37.3748ZM8.125 40.6248L20.3125 40.6248C21.1745 40.6248 22.0011 40.2824 22.6106 39.6729C23.2201 39.0634 23.5625 38.2368 23.5625 37.3748L23.5625 24.3748C23.5625 23.5129 23.2201 22.6862 22.6106 22.0767C22.0011 21.4672 21.1745 21.1248 20.3125 21.1248L8.125 21.1248L8.125 19.4998C8.125 17.7759 8.80982 16.1226 10.0288 14.9036C11.2478 13.6846 12.9011 12.9998 14.625 12.9998C15.056 12.9998 15.4693 12.8286 15.7741 12.5239C16.0788 12.2191 16.25 11.8058 16.25 11.3748C16.25 10.9438 16.0788 10.5305 15.7741 10.2258C15.4693 9.92102 15.056 9.74982 14.625 9.74982C12.04 9.75251 9.56158 10.7806 7.73368 12.6085C5.90578 14.4364 4.87769 16.9148 4.875 19.4998L4.875 37.3748C4.875 38.2368 5.21741 39.0634 5.8269 39.6729C6.4364 40.2824 7.26305 40.6248 8.125 40.6248Z" fill="#5BC2A7"/>
</svg>
