<svg width="52" height="52" viewBox="0 0 52 52" fill="none" xmlns="http://www.w3.org/2000/svg">
<path d="M28.4377 37.3748L28.4377 19.4998C28.4404 16.9148 29.4685 14.4364 31.2964 12.6085C33.1243 10.7806 35.6027 9.75251 38.1877 9.74982C38.6187 9.74982 39.032 9.92102 39.3368 10.2258C39.6415 10.5305 39.8127 10.9438 39.8127 11.3748C39.8127 11.8058 39.6415 12.2191 39.3368 12.5239C39.032 12.8286 38.6187 12.9998 38.1877 12.9998C36.4638 12.9998 34.8105 13.6846 33.5916 14.9036C32.3726 16.1226 31.6877 17.7759 31.6877 19.4998L31.6877 21.1248L43.8752 21.1248C44.7372 21.1248 45.5638 21.4672 46.1733 22.0767C46.7828 22.6862 47.1252 23.5129 47.1252 24.3748L47.1252 37.3748C47.1252 38.2368 46.7828 39.0634 46.1733 39.6729C45.5638 40.2824 44.7372 40.6248 43.8752 40.6248L31.6877 40.6248C30.8258 40.6248 29.9991 40.2824 29.3896 39.6729C28.7802 39.0634 28.4377 38.2368 28.4377 37.3748ZM8.12524 40.6248L20.3127 40.6248C21.1747 40.6248 22.0013 40.2824 22.6108 39.6729C23.2203 39.0634 23.5627 38.2368 23.5627 37.3748L23.5627 24.3748C23.5627 23.5129 23.2203 22.6862 22.6108 22.0767C22.0013 21.4672 21.1747 21.1248 20.3127 21.1248L8.12525 21.1248L8.12525 19.4998C8.12525 17.7759 8.81007 16.1226 10.0291 14.9036C11.248 13.6846 12.9013 12.9998 14.6252 12.9998C15.0562 12.9998 15.4695 12.8286 15.7743 12.5239C16.079 12.2191 16.2502 11.8058 16.2502 11.3748C16.2502 10.9438 16.079 10.5305 15.7743 10.2258C15.4695 9.92102 15.0562 9.74982 14.6252 9.74982C12.0402 9.75251 9.56182 10.7806 7.73392 12.6085C5.90603 14.4364 4.87794 16.9148 4.87525 19.4998L4.87524 37.3748C4.87524 38.2368 5.21766 39.0634 5.82715 39.6729C6.43664 40.2824 7.26329 40.6248 8.12524 40.6248Z" fill="#5BC2A7"/>
</svg>
