<svg width="45" height="45" viewBox="0 0 45 45" fill="none" xmlns="http://www.w3.org/2000/svg">
<rect x="44.5" y="0.717773" width="44" height="44" rx="22" transform="rotate(90 44.5 0.717773)" fill="#5E6674"/>
<path d="M25 33C24.7348 33 24.4804 32.8947 24.2929 32.7071C24.1054 32.5196 24 32.2652 24 32V28C24 27.8354 24.0406 27.6734 24.1182 27.5282C24.1958 27.3831 24.3081 27.2594 24.445 27.168L27.445 25.168C27.6093 25.0584 27.8025 24.9999 28 24.9999C28.1975 24.9999 28.3907 25.0584 28.555 25.168L31.555 27.168C31.6919 27.2594 31.8042 27.3831 31.8818 27.5282C31.9594 27.6734 32 27.8354 32 28V32C32 32.2652 31.8946 32.5196 31.7071 32.7071C31.5196 32.8947 31.2652 33 31 33H25Z" stroke="white" stroke-width="1.75" stroke-linecap="round" stroke-linejoin="round"/>
<path d="M28 21C28 18.8783 27.1571 16.8434 25.6569 15.3431C24.1566 13.8429 22.1217 13 20 13C17.8783 13 15.8434 13.8429 14.3431 15.3431C12.8429 16.8434 12 18.8783 12 21C12 25.993 17.539 31.193 19.399 32.799C19.5724 32.929 19.7833 32.9992 20 32.999" stroke="white" stroke-width="1.75" stroke-linecap="round" stroke-linejoin="round"/>
<path d="M28 33V30" stroke="white" stroke-width="1.75" stroke-linecap="round" stroke-linejoin="round"/>
<path d="M20 24C21.6569 24 23 22.6569 23 21C23 19.3431 21.6569 18 20 18C18.3431 18 17 19.3431 17 21C17 22.6569 18.3431 24 20 24Z" stroke="white" stroke-width="1.75" stroke-linecap="round" stroke-linejoin="round"/>
</svg>
