<svg width="45" height="44" viewBox="0 0 45 44" fill="none" xmlns="http://www.w3.org/2000/svg">
<rect x="44.5" width="44" height="44" rx="22" transform="rotate(90 44.5 0)" fill="#A855F7"/>
<path d="M26.5 20C26.5 21.0609 26.0786 22.0783 25.3284 22.8284C24.5783 23.5786 23.5609 24 22.5 24C21.4391 24 20.4217 23.5786 19.6716 22.8284C18.9214 22.0783 18.5 21.0609 18.5 20" stroke="white" stroke-width="1.5" stroke-linecap="round" stroke-linejoin="round"/>
<path d="M13.603 16.0341H31.397" stroke="white" stroke-width="1.5" stroke-linecap="round" stroke-linejoin="round"/>
<path d="M13.9 15.467C13.6404 15.8132 13.5 16.2343 13.5 16.667V30C13.5 30.5304 13.7107 31.0391 14.0858 31.4142C14.4609 31.7893 14.9696 32 15.5 32H29.5C30.0304 32 30.5391 31.7893 30.9142 31.4142C31.2893 31.0391 31.5 30.5304 31.5 30V16.667C31.5 16.2343 31.3596 15.8132 31.1 15.467L29.1 12.8C28.9137 12.5516 28.6721 12.35 28.3944 12.2111C28.1167 12.0723 27.8105 12 27.5 12H17.5C17.1895 12 16.8833 12.0723 16.6056 12.2111C16.3279 12.35 16.0863 12.5516 15.9 12.8L13.9 15.467Z" stroke="white" stroke-width="1.5" stroke-linecap="round" stroke-linejoin="round"/>
</svg>
