<svg width="45" height="45" viewBox="0 0 45 45" fill="none" xmlns="http://www.w3.org/2000/svg">
<rect x="44.5" y="0.717773" width="44" height="44" rx="22" transform="rotate(90 44.5 0.717773)" fill="#2E6EEF"/>
<path d="M14 24.7178C13.8108 24.7185 13.6252 24.6654 13.4649 24.5648C13.3047 24.4642 13.1762 24.3202 13.0945 24.1495C13.0129 23.9788 12.9813 23.7884 13.0035 23.6005C13.0257 23.4125 13.1008 23.2348 13.22 23.0878L23.12 12.8878C23.1943 12.8021 23.2955 12.7442 23.407 12.7235C23.5185 12.7029 23.6337 12.7208 23.7337 12.7743C23.8337 12.8278 23.9126 12.9137 23.9573 13.0179C24.0021 13.1221 24.0101 13.2385 23.98 13.3478L22.06 19.3678C22.0034 19.5193 21.9844 19.6823 22.0046 19.8428C22.0248 20.0033 22.0837 20.1565 22.1761 20.2892C22.2685 20.422 22.3918 20.5303 22.5353 20.605C22.6788 20.6796 22.8382 20.7183 23 20.7178H30C30.1892 20.7172 30.3748 20.7702 30.535 20.8708C30.6953 20.9714 30.8238 21.1155 30.9054 21.2862C30.9871 21.4569 31.0187 21.6472 30.9965 21.8352C30.9743 22.0231 30.8992 22.2009 30.78 22.3478L20.88 32.5478C20.8057 32.6335 20.7045 32.6915 20.593 32.7121C20.4815 32.7327 20.3663 32.7148 20.2663 32.6613C20.1663 32.6078 20.0874 32.5219 20.0427 32.4177C19.9979 32.3135 19.9899 32.1972 20.02 32.0878L21.94 26.0678C21.9966 25.9163 22.0156 25.7533 21.9954 25.5928C21.9752 25.4323 21.9163 25.2791 21.8239 25.1464C21.7315 25.0136 21.6082 24.9053 21.4647 24.8307C21.3212 24.756 21.1617 24.7173 21 24.7178H14Z" stroke="white" stroke-width="1.75" stroke-linecap="round" stroke-linejoin="round"/>
</svg>
