<svg width="56" height="56" viewBox="0 0 56 56" fill="none" xmlns="http://www.w3.org/2000/svg">
<rect width="56" height="56" rx="28" fill="#F2F2F2" fill-opacity="0.6"/>
<path d="M27.5248 18.2949C27.5687 18.2064 27.6364 18.1318 27.7203 18.0797C27.8042 18.0276 27.9011 18 27.9998 18C28.0986 18 28.1955 18.0276 28.2794 18.0797C28.3633 18.1318 28.431 18.2064 28.4748 18.2949L30.7848 22.9739C30.937 23.2819 31.1617 23.5483 31.4395 23.7503C31.7173 23.9524 32.04 24.084 32.3798 24.1339L37.5458 24.8899C37.6437 24.9041 37.7357 24.9454 37.8113 25.0091C37.887 25.0728 37.9433 25.1564 37.9739 25.2505C38.0045 25.3446 38.0081 25.4453 37.9844 25.5413C37.9607 25.6374 37.9107 25.7248 37.8398 25.7939L34.1038 29.4319C33.8575 29.672 33.6731 29.9684 33.5667 30.2955C33.4602 30.6227 33.4349 30.9708 33.4928 31.3099L34.3748 36.4499C34.3921 36.5477 34.3816 36.6485 34.3443 36.7406C34.3071 36.8327 34.2448 36.9125 34.1644 36.9709C34.084 37.0293 33.9888 37.0639 33.8897 37.0708C33.7906 37.0777 33.6915 37.0566 33.6038 37.0099L28.9858 34.5819C28.6816 34.4221 28.343 34.3386 27.9993 34.3386C27.6557 34.3386 27.3171 34.4221 27.0128 34.5819L22.3958 37.0099C22.3082 37.0563 22.2092 37.0772 22.1103 37.0701C22.0114 37.0631 21.9164 37.0285 21.8361 36.9701C21.7559 36.9118 21.6937 36.8321 21.6565 36.7401C21.6193 36.6482 21.6087 36.5476 21.6258 36.4499L22.5068 31.3109C22.565 30.9716 22.5398 30.6233 22.4334 30.2959C22.3269 29.9686 22.1425 29.672 21.8958 29.4319L18.1598 25.7949C18.0884 25.7259 18.0378 25.6383 18.0138 25.542C17.9898 25.4456 17.9933 25.3445 18.0239 25.2501C18.0546 25.1557 18.1111 25.0717 18.1871 25.0079C18.2631 24.944 18.3556 24.9028 18.4538 24.8889L23.6188 24.1339C23.9591 24.0844 24.2822 23.953 24.5604 23.7509C24.8386 23.5488 25.0636 23.2822 25.2158 22.9739L27.5248 18.2949Z" stroke="#5BC2A7" stroke-width="1.75" stroke-linecap="round" stroke-linejoin="round"/>
</svg>
