<svg width="45" height="45" viewBox="0 0 45 45" fill="none" xmlns="http://www.w3.org/2000/svg">
<g clip-path="url(#clip0_21604_5822)">
<rect x="44.5" y="0.717773" width="44" height="44" rx="22" transform="rotate(90 44.5 0.717773)" fill="#11A999"/>
<path d="M21.5251 13.0128C21.5689 12.9243 21.6366 12.8497 21.7205 12.7976C21.8045 12.7455 21.9013 12.7179 22.0001 12.7179C22.0989 12.7179 22.1957 12.7455 22.2796 12.7976C22.3636 12.8497 22.4313 12.9243 22.4751 13.0128L24.7851 17.6918C24.9373 17.9998 25.1619 18.2662 25.4397 18.4682C25.7175 18.6703 26.0402 18.8019 26.3801 18.8518L31.5461 19.6078C31.644 19.622 31.7359 19.6633 31.8116 19.727C31.8872 19.7907 31.9435 19.8743 31.9741 19.9684C32.0047 20.0625 32.0084 20.1632 31.9847 20.2592C31.961 20.3553 31.9109 20.4427 31.8401 20.5118L28.1041 24.1498C27.8577 24.3899 27.6734 24.6863 27.5669 25.0134C27.4605 25.3406 27.4352 25.6887 27.4931 26.0278L28.3751 31.1678C28.3924 31.2656 28.3818 31.3664 28.3446 31.4585C28.3074 31.5506 28.245 31.6304 28.1646 31.6888C28.0842 31.7472 27.9891 31.7818 27.89 31.7887C27.7908 31.7956 27.6918 31.7745 27.6041 31.7278L22.9861 29.2998C22.6818 29.14 22.3433 29.0565 21.9996 29.0565C21.6559 29.0565 21.3174 29.14 21.0131 29.2998L16.3961 31.7278C16.3084 31.7742 16.2095 31.7951 16.1105 31.788C16.0116 31.781 15.9166 31.7464 15.8364 31.688C15.7562 31.6297 15.6939 31.55 15.6567 31.458C15.6196 31.366 15.6089 31.2655 15.6261 31.1678L16.5071 26.0288C16.5653 25.6895 16.5401 25.3412 16.4336 25.0138C16.3272 24.6865 16.1427 24.3899 15.8961 24.1498L12.1601 20.5128C12.0887 20.4438 12.0381 20.3562 12.0141 20.2599C11.99 20.1635 11.9935 20.0624 12.0242 19.968C12.0548 19.8736 12.1114 19.7896 12.1874 19.7258C12.2634 19.6619 12.3558 19.6207 12.4541 19.6068L17.6191 18.8518C17.9593 18.8023 18.2825 18.6708 18.5607 18.4688C18.8389 18.2667 19.0638 18.0001 19.2161 17.6918L21.5251 13.0128Z" stroke="white" stroke-width="1.5" stroke-linecap="round" stroke-linejoin="round"/>
</g>
<defs>
<clipPath id="clip0_21604_5822">
<rect x="44.5" y="0.717773" width="44" height="44" rx="22" transform="rotate(90 44.5 0.717773)" fill="white"/>
</clipPath>
</defs>
</svg>
