<svg width="44" height="44" viewBox="0 0 44 44" fill="none" xmlns="http://www.w3.org/2000/svg">
<rect x="44" width="44" height="44" rx="22" transform="rotate(90 44 0)" fill="#5BC2A7"/>
<path d="M14 24C13.8108 24.0006 13.6252 23.9476 13.4649 23.847C13.3047 23.7464 13.1762 23.6024 13.0945 23.4317C13.0129 23.261 12.9813 23.0706 13.0035 22.8827C13.0257 22.6947 13.1008 22.517 13.22 22.37L23.12 12.17C23.1943 12.0843 23.2955 12.0264 23.407 12.0057C23.5185 11.9851 23.6337 12.003 23.7337 12.0565C23.8337 12.11 23.9126 12.1959 23.9573 12.3001C24.0021 12.4043 24.0101 12.5206 23.98 12.63L22.06 18.65C22.0034 18.8015 21.9844 18.9645 22.0046 19.125C22.0248 19.2855 22.0837 19.4387 22.1761 19.5714C22.2685 19.7042 22.3918 19.8125 22.5353 19.8872C22.6788 19.9618 22.8382 20.0005 23 20H30C30.1892 19.9994 30.3748 20.0524 30.535 20.153C30.6953 20.2536 30.8238 20.3976 30.9054 20.5683C30.9871 20.739 31.0187 20.9294 30.9965 21.1173C30.9743 21.3053 30.8992 21.483 30.78 21.63L20.88 31.83C20.8057 31.9157 20.7045 31.9736 20.593 31.9943C20.4815 32.0149 20.3663 31.997 20.2663 31.9435C20.1663 31.89 20.0874 31.8041 20.0427 31.6999C19.9979 31.5957 19.9899 31.4794 20.02 31.37L21.94 25.35C21.9966 25.1985 22.0156 25.0355 21.9954 24.875C21.9752 24.7145 21.9163 24.5613 21.8239 24.4286C21.7315 24.2958 21.6082 24.1875 21.4647 24.1128C21.3212 24.0382 21.1617 23.9995 21 24H14Z" stroke="white" stroke-width="1.75" stroke-linecap="round" stroke-linejoin="round"/>
</svg>
