<svg width="44" height="45" viewBox="0 0 44 45" fill="none" xmlns="http://www.w3.org/2000/svg">
<rect x="44" y="0.717773" width="44" height="44" rx="22" transform="rotate(90 44 0.717773)" fill="#27A483"/>
<path d="M12 31.7178V13.7178" stroke="white" stroke-width="1.5" stroke-linecap="round" stroke-linejoin="round"/>
<path d="M12 15.7178H30C30.5304 15.7178 31.0391 15.9285 31.4142 16.3036C31.7893 16.6786 32 17.1873 32 17.7178V25.7178C32 26.2482 31.7893 26.7569 31.4142 27.132C31.0391 27.5071 30.5304 27.7178 30 27.7178H12.26" stroke="white" stroke-width="1.5" stroke-linecap="round" stroke-linejoin="round"/>
<path d="M17 27.7178V30.7178C17 30.983 17.1054 31.2373 17.2929 31.4249C17.4804 31.6124 17.7348 31.7178 18 31.7178H23C23.2652 31.7178 23.5196 31.6124 23.7071 31.4249C23.8946 31.2373 24 30.983 24 30.7178V27.7178" stroke="white" stroke-width="1.5" stroke-linecap="round" stroke-linejoin="round"/>
<path d="M26 23.7178C27.1046 23.7178 28 22.8223 28 21.7178C28 20.6132 27.1046 19.7178 26 19.7178C24.8954 19.7178 24 20.6132 24 21.7178C24 22.8223 24.8954 23.7178 26 23.7178Z" stroke="white" stroke-width="1.5" stroke-linecap="round" stroke-linejoin="round"/>
<path d="M18 23.7178C19.1046 23.7178 20 22.8223 20 21.7178C20 20.6132 19.1046 19.7178 18 19.7178C16.8954 19.7178 16 20.6132 16 21.7178C16 22.8223 16.8954 23.7178 18 23.7178Z" stroke="white" stroke-width="1.5" stroke-linecap="round" stroke-linejoin="round"/>
</svg>
