<svg width="57" height="57" viewBox="0 0 57 57" fill="none" xmlns="http://www.w3.org/2000/svg">
<rect x="0.5" y="0.717773" width="56" height="56" rx="28" fill="#F57C2F"/>
<path d="M18.562 29.0658C18.4787 28.8413 18.4787 28.5943 18.562 28.3698C19.3737 26.4016 20.7515 24.7188 22.5208 23.5347C24.29 22.3505 26.3711 21.7184 28.5 21.7184C30.629 21.7184 32.71 22.3505 34.4792 23.5347C36.2485 24.7188 37.6263 26.4016 38.438 28.3698C38.5214 28.5943 38.5214 28.8413 38.438 29.0658C37.6263 31.0339 36.2485 32.7167 34.4792 33.9009C32.71 35.085 30.629 35.7172 28.5 35.7172C26.3711 35.7172 24.29 35.085 22.5208 33.9009C20.7515 32.7167 19.3737 31.0339 18.562 29.0658Z" stroke="white" stroke-width="1.5" stroke-linecap="round" stroke-linejoin="round"/>
<path d="M28.5 31.7178C30.1569 31.7178 31.5 30.3746 31.5 28.7178C31.5 27.0609 30.1569 25.7178 28.5 25.7178C26.8431 25.7178 25.5 27.0609 25.5 28.7178C25.5 30.3746 26.8431 31.7178 28.5 31.7178Z" stroke="white" stroke-width="1.5" stroke-linecap="round" stroke-linejoin="round"/>
</svg>
