<svg width="45" height="44" viewBox="0 0 45 44" fill="none" xmlns="http://www.w3.org/2000/svg">
<rect x="44.5" width="44" height="44" rx="22" transform="rotate(90 44.5 0)" fill="#13A248"/>
<path d="M26.036 21.293C25.8485 21.4805 25.7432 21.7348 25.7432 22C25.7432 22.2652 25.8485 22.5195 26.036 22.707L28.412 25.084C28.5995 25.2715 28.8538 25.3768 29.1189 25.3768C29.3841 25.3768 29.6384 25.2715 29.826 25.084L32.2029 22.707C32.3904 22.5195 32.4957 22.2652 32.4957 22C32.4957 21.7348 32.3904 21.4805 32.2029 21.293L29.826 18.916C29.6384 18.7285 29.3841 18.6232 29.1189 18.6232C28.8538 18.6232 28.5995 18.7285 28.412 18.916L26.036 21.293Z" stroke="white" stroke-width="1.5" stroke-linecap="round" stroke-linejoin="round"/>
<path d="M12.7971 21.293C12.6096 21.4805 12.5043 21.7348 12.5043 22C12.5043 22.2652 12.6096 22.5195 12.7971 22.707L15.1741 25.084C15.3616 25.2715 15.6159 25.3768 15.8811 25.3768C16.1462 25.3768 16.4005 25.2715 16.5881 25.084L18.9651 22.707C19.1525 22.5195 19.2578 22.2652 19.2578 22C19.2578 21.7348 19.1525 21.4805 18.9651 21.293L16.5881 18.916C16.4005 18.7285 16.1462 18.6232 15.8811 18.6232C15.6159 18.6232 15.3616 18.7285 15.1741 18.916L12.7971 21.293Z" stroke="white" stroke-width="1.5" stroke-linecap="round" stroke-linejoin="round"/>
<path d="M19.416 27.912C19.323 28.0049 19.2492 28.1152 19.1989 28.2366C19.1486 28.358 19.1227 28.4881 19.1227 28.6195C19.1227 28.7509 19.1486 28.881 19.1989 29.0024C19.2492 29.1238 19.323 29.2341 19.416 29.327L21.793 31.703C21.9805 31.8905 22.2348 31.9958 22.5 31.9958C22.7651 31.9958 23.0194 31.8905 23.207 31.703L25.584 29.327C25.6769 29.2341 25.7507 29.1238 25.801 29.0024C25.8514 28.881 25.8773 28.7509 25.8773 28.6195C25.8773 28.4881 25.8514 28.358 25.801 28.2366C25.7507 28.1152 25.6769 28.0049 25.584 27.912L23.207 25.536C23.0194 25.3485 22.7651 25.2432 22.5 25.2432C22.2348 25.2432 21.9805 25.3485 21.793 25.536L19.416 27.912Z" stroke="white" stroke-width="1.5" stroke-linecap="round" stroke-linejoin="round"/>
<path d="M19.416 14.674C19.2285 14.8615 19.1232 15.1158 19.1232 15.381C19.1232 15.6462 19.2285 15.9005 19.416 16.088L21.793 18.464C21.9805 18.6515 22.2348 18.7568 22.5 18.7568C22.7651 18.7568 23.0194 18.6515 23.207 18.464L25.584 16.088C25.7714 15.9005 25.8767 15.6462 25.8767 15.381C25.8767 15.1158 25.7714 14.8615 25.584 14.674L23.207 12.297C23.0194 12.1095 22.7651 12.0042 22.5 12.0042C22.2348 12.0042 21.9805 12.1095 21.793 12.297L19.416 14.674Z" stroke="white" stroke-width="1.5" stroke-linecap="round" stroke-linejoin="round"/>
</svg>
