<svg width="44" height="45" viewBox="0 0 44 45" fill="none" xmlns="http://www.w3.org/2000/svg">
<rect x="44" y="0.717773" width="44" height="44" rx="22" transform="rotate(90 44 0.717773)" fill="#27A483"/>
<path d="M25.536 22.293C25.3485 22.4805 25.2432 22.7348 25.2432 23C25.2432 23.2651 25.3485 23.5194 25.536 23.707L27.912 26.084C28.0995 26.2714 28.3538 26.3767 28.6189 26.3767C28.8841 26.3767 29.1384 26.2714 29.326 26.084L31.7029 23.707C31.8904 23.5194 31.9957 23.2651 31.9957 23C31.9957 22.7348 31.8904 22.4805 31.7029 22.293L29.326 19.916C29.1384 19.7285 28.8841 19.6232 28.6189 19.6232C28.3538 19.6232 28.0995 19.7285 27.912 19.916L25.536 22.293Z" stroke="white" stroke-width="1.5" stroke-linecap="round" stroke-linejoin="round"/>
<path d="M12.2969 22.293C12.1095 22.4805 12.0042 22.7348 12.0042 23C12.0042 23.2651 12.1095 23.5194 12.2969 23.707L14.6739 26.084C14.8615 26.2714 15.1158 26.3767 15.3809 26.3767C15.6461 26.3767 15.9004 26.2714 16.0879 26.084L18.4649 23.707C18.6524 23.5194 18.7577 23.2651 18.7577 23C18.7577 22.7348 18.6524 22.4805 18.4649 22.293L16.0879 19.916C15.9004 19.7285 15.6461 19.6232 15.3809 19.6232C15.1158 19.6232 14.8615 19.7285 14.6739 19.916L12.2969 22.293Z" stroke="white" stroke-width="1.5" stroke-linecap="round" stroke-linejoin="round"/>
<path d="M18.9161 28.912C18.8231 29.0048 18.7494 29.1151 18.699 29.2365C18.6487 29.3579 18.6228 29.488 18.6228 29.6194C18.6228 29.7509 18.6487 29.881 18.699 30.0024C18.7494 30.1238 18.8231 30.2341 18.9161 30.327L21.2931 32.7029C21.4806 32.8904 21.7349 32.9957 22.0001 32.9957C22.2653 32.9957 22.5196 32.8904 22.7071 32.7029L25.0841 30.327C25.1771 30.2341 25.2508 30.1238 25.3011 30.0024C25.3515 29.881 25.3774 29.7509 25.3774 29.6194C25.3774 29.488 25.3515 29.3579 25.3011 29.2365C25.2508 29.1151 25.1771 29.0048 25.0841 28.912L22.7071 26.536C22.5196 26.3485 22.2653 26.2432 22.0001 26.2432C21.7349 26.2432 21.4806 26.3485 21.2931 26.536L18.9161 28.912Z" stroke="white" stroke-width="1.5" stroke-linecap="round" stroke-linejoin="round"/>
<path d="M18.9161 15.6741C18.7286 15.8616 18.6233 16.1159 18.6233 16.3811C18.6233 16.6462 18.7286 16.9005 18.9161 17.0881L21.2931 19.4641C21.4806 19.6515 21.7349 19.7568 22.0001 19.7568C22.2652 19.7568 22.5195 19.6515 22.7071 19.4641L25.0841 17.0881C25.2715 16.9005 25.3769 16.6462 25.3769 16.3811C25.3769 16.1159 25.2715 15.8616 25.0841 15.6741L22.7071 13.2971C22.5195 13.1096 22.2652 13.0043 22.0001 13.0043C21.7349 13.0043 21.4806 13.1096 21.2931 13.2971L18.9161 15.6741Z" stroke="white" stroke-width="1.5" stroke-linecap="round" stroke-linejoin="round"/>
</svg>
