<svg width="44" height="44" viewBox="0 0 44 44" fill="none" xmlns="http://www.w3.org/2000/svg">
<rect x="44" width="44" height="44" rx="22" transform="rotate(90 44 0)" fill="#9A3FEE"/>
<path d="M26 31V29C26 27.9391 25.5786 26.9217 24.8284 26.1716C24.0783 25.4214 23.0609 25 22 25H16C14.9391 25 13.9217 25.4214 13.1716 26.1716C12.4214 26.9217 12 27.9391 12 29V31" stroke="white" stroke-width="1.75" stroke-linecap="round" stroke-linejoin="round"/>
<path d="M26 13.1279C26.8578 13.3503 27.6174 13.8512 28.1597 14.552C28.702 15.2528 28.9962 16.1138 28.9962 16.9999C28.9962 17.886 28.702 18.7471 28.1597 19.4479C27.6174 20.1487 26.8578 20.6496 26 20.8719" stroke="white" stroke-width="1.75" stroke-linecap="round" stroke-linejoin="round"/>
<path d="M32 30.9999V28.9999C31.9993 28.1136 31.7044 27.2527 31.1614 26.5522C30.6184 25.8517 29.8581 25.3515 29 25.1299" stroke="white" stroke-width="1.75" stroke-linecap="round" stroke-linejoin="round"/>
<path d="M19 21C21.2091 21 23 19.2091 23 17C23 14.7909 21.2091 13 19 13C16.7909 13 15 14.7909 15 17C15 19.2091 16.7909 21 19 21Z" stroke="white" stroke-width="1.75" stroke-linecap="round" stroke-linejoin="round"/>
</svg>
