<svg width="44" height="32" viewBox="0 0 44 32" fill="none" xmlns="http://www.w3.org/2000/svg">
<path d="M24.4375 28.3748L24.4375 10.4998C24.4402 7.91478 25.4683 5.43639 27.2962 3.60849C29.1241 1.7806 31.6025 0.752507 34.1875 0.749818C34.6185 0.749818 35.0318 0.921022 35.3366 1.22577C35.6413 1.53052 35.8125 1.94384 35.8125 2.37482C35.8125 2.8058 35.6413 3.21912 35.3366 3.52387C35.0318 3.82861 34.6185 3.99982 34.1875 3.99982C32.4636 3.99982 30.8103 4.68464 29.5913 5.90362C28.3723 7.12261 27.6875 8.77591 27.6875 10.4998L27.6875 12.1248L39.875 12.1248C40.737 12.1248 41.5636 12.4672 42.1731 13.0767C42.7826 13.6862 43.125 14.5129 43.125 15.3748L43.125 28.3748C43.125 29.2368 42.7826 30.0634 42.1731 30.6729C41.5636 31.2824 40.737 31.6248 39.875 31.6248L27.6875 31.6248C26.8255 31.6248 25.9989 31.2824 25.3894 30.6729C24.7799 30.0634 24.4375 29.2368 24.4375 28.3748ZM4.125 31.6248L16.3125 31.6248C17.1745 31.6248 18.0011 31.2824 18.6106 30.6729C19.2201 30.0634 19.5625 29.2368 19.5625 28.3748L19.5625 15.3748C19.5625 14.5129 19.2201 13.6862 18.6106 13.0767C18.0011 12.4672 17.1745 12.1248 16.3125 12.1248L4.125 12.1248L4.125 10.4998C4.125 8.77591 4.80982 7.12261 6.02881 5.90362C7.2478 4.68464 8.90109 3.99982 10.625 3.99982C11.056 3.99982 11.4693 3.82861 11.7741 3.52387C12.0788 3.21912 12.25 2.80579 12.25 2.37482C12.25 1.94384 12.0788 1.53051 11.7741 1.22577C11.4693 0.92102 11.056 0.749816 10.625 0.749816C8.03997 0.752505 5.56158 1.7806 3.73368 3.60849C1.90578 5.43639 0.877691 7.91478 0.875002 10.4998L0.875 28.3748C0.875 29.2368 1.21741 30.0634 1.8269 30.6729C2.4364 31.2824 3.26305 31.6248 4.125 31.6248Z" fill="#5BC2A7"/>
</svg>
