<svg width="44" height="44" viewBox="0 0 44 44" fill="none" xmlns="http://www.w3.org/2000/svg">
<rect x="44" width="44" height="44" rx="22" transform="rotate(90 44 0)" fill="#F57C2F"/>
<path d="M29.8999 22.6599C29.7396 22.4774 29.6512 22.2428 29.6512 21.9999C29.6512 21.757 29.7396 21.5224 29.8999 21.3399L31.1799 19.8999C31.3209 19.7426 31.4085 19.5446 31.4301 19.3344C31.4516 19.1242 31.4061 18.9126 31.2999 18.7299L29.2999 15.2699C29.1948 15.0874 29.0348 14.9428 28.8426 14.8566C28.6505 14.7704 28.4361 14.7471 28.2299 14.7899L26.3499 15.1699C26.1107 15.2193 25.8616 15.1795 25.6498 15.0579C25.4379 14.9363 25.2779 14.7414 25.1999 14.5099L24.5899 12.6799C24.5228 12.4813 24.395 12.3088 24.2245 12.1867C24.0541 12.0647 23.8495 11.9994 23.6399 11.9999H19.6399C19.4218 11.9885 19.206 12.0488 19.0255 12.1716C18.8449 12.2944 18.7095 12.4729 18.6399 12.6799L18.0799 14.5099C18.0019 14.7414 17.8419 14.9363 17.63 15.0579C17.4181 15.1795 17.1691 15.2193 16.9299 15.1699L14.9999 14.7899C14.8044 14.7623 14.6052 14.7931 14.4272 14.8785C14.2493 14.964 14.1006 15.1001 13.9999 15.2699L11.9999 18.7299C11.8911 18.9105 11.8421 19.121 11.8601 19.3311C11.878 19.5413 11.962 19.7403 12.0999 19.8999L13.3699 21.3399C13.5302 21.5224 13.6186 21.757 13.6186 21.9999C13.6186 22.2428 13.5302 22.4774 13.3699 22.6599L12.0999 24.0999C11.962 24.2595 11.878 24.4585 11.8601 24.6687C11.8421 24.8788 11.8911 25.0892 11.9999 25.2699L13.9999 28.7299C14.105 28.9124 14.265 29.057 14.4571 29.1432C14.6493 29.2294 14.8637 29.2527 15.0699 29.2099L16.9499 28.8299C17.1891 28.7805 17.4381 28.8203 17.65 28.9419C17.8619 29.0635 18.0219 29.2584 18.0999 29.4899L18.7099 31.3199C18.7795 31.5269 18.9149 31.7054 19.0955 31.8282C19.276 31.951 19.4918 32.0113 19.7099 31.9999H23.7099C23.9195 32.0004 24.1241 31.9351 24.2945 31.8131C24.465 31.691 24.5928 31.5185 24.6599 31.3199L25.2699 29.4899C25.3479 29.2584 25.5079 29.0635 25.7198 28.9419C25.9316 28.8203 26.1807 28.7805 26.4199 28.8299L28.2999 29.2099C28.5061 29.2527 28.7205 29.2294 28.9126 29.1432C29.1048 29.057 29.2648 28.9124 29.3699 28.7299L31.3699 25.2699C31.4761 25.0872 31.5216 24.8756 31.5001 24.6654C31.4785 24.4552 31.3909 24.2572 31.2499 24.0999L29.8999 22.6599ZM28.4099 23.9999L29.2099 24.8999L27.9299 27.1199L26.7499 26.8799C26.0297 26.7327 25.2805 26.855 24.6445 27.2237C24.0085 27.5924 23.53 28.1817 23.2999 28.8799L22.9199 29.9999H20.3599L19.9999 28.8599C19.7698 28.1617 19.2913 27.5724 18.6553 27.2037C18.0193 26.835 17.2701 26.7127 16.5499 26.8599L15.3699 27.0999L14.0699 24.8899L14.8699 23.9899C15.3619 23.4399 15.6338 22.7278 15.6338 21.9899C15.6338 21.252 15.3619 20.5399 14.8699 19.9899L14.0699 19.0899L15.3499 16.8899L16.5299 17.1299C17.2501 17.2771 17.9993 17.1548 18.6353 16.7861C19.2713 16.4174 19.7498 15.8281 19.9799 15.1299L20.3599 13.9999H22.9199L23.2999 15.1399C23.53 15.8381 24.0085 16.4274 24.6445 16.7961C25.2805 17.1648 26.0297 17.2871 26.7499 17.1399L27.9299 16.8999L29.2099 19.1199L28.4099 20.0199C27.9235 20.5687 27.6549 21.2766 27.6549 22.0099C27.6549 22.7432 27.9235 23.4511 28.4099 23.9999ZM21.6399 17.9999C20.8488 17.9999 20.0754 18.2345 19.4176 18.674C18.7598 19.1135 18.2471 19.7383 17.9444 20.4692C17.6416 21.2001 17.5624 22.0043 17.7168 22.7803C17.8711 23.5562 18.2521 24.2689 18.8115 24.8283C19.3709 25.3877 20.0836 25.7687 20.8595 25.923C21.6355 26.0774 22.4397 25.9982 23.1706 25.6954C23.9015 25.3927 24.5262 24.88 24.9658 24.2222C25.4053 23.5644 25.6399 22.791 25.6399 21.9999C25.6399 20.939 25.2185 19.9216 24.4683 19.1715C23.7182 18.4213 22.7008 17.9999 21.6399 17.9999ZM21.6399 23.9999C21.2443 23.9999 20.8577 23.8826 20.5288 23.6628C20.1999 23.4431 19.9435 23.1307 19.7921 22.7653C19.6408 22.3998 19.6012 21.9977 19.6783 21.6097C19.7555 21.2218 19.946 20.8654 20.2257 20.5857C20.5054 20.306 20.8618 20.1155 21.2497 20.0383C21.6377 19.9612 22.0398 20.0008 22.4053 20.1521C22.7707 20.3035 23.0831 20.5599 23.3028 20.8888C23.5226 21.2177 23.6399 21.6043 23.6399 21.9999C23.6399 22.5303 23.4292 23.039 23.0541 23.4141C22.679 23.7892 22.1703 23.9999 21.6399 23.9999Z" fill="white"/>
</svg>
