<svg width="226" height="29" viewBox="0 0 226 29" fill="none" xmlns="http://www.w3.org/2000/svg">
<path d="M0 24.8988H24V0.89875H0V24.8988ZM35.348 23.2188L30.4219 5.7642H33.8224L36.9673 18.5909H37.1293L40.4872 5.7642H43.581L46.9474 18.5994H47.1009L50.2457 5.7642H53.6463L48.7202 23.2188H45.6009L42.1065 10.9716H41.9702L38.4673 23.2188H35.348ZM58.7876 15.5483V23.2188H55.7024V5.7642H58.7195V12.3523H58.8729C59.1797 11.6136 59.6541 11.0312 60.2962 10.6051C60.9439 10.1733 61.7678 9.95739 62.7678 9.95739C63.6768 9.95739 64.4695 10.1477 65.1456 10.5284C65.8217 10.9091 66.3445 11.4659 66.7138 12.1989C67.0888 12.9318 67.2763 13.8267 67.2763 14.8835V23.2188H64.1911V15.3608C64.1911 14.4801 63.9638 13.7955 63.5092 13.3068C63.0604 12.8125 62.4297 12.5653 61.6172 12.5653C61.0717 12.5653 60.5831 12.6847 60.1513 12.9233C59.7251 13.1562 59.3899 13.4943 59.1456 13.9375C58.907 14.3807 58.7876 14.9176 58.7876 15.5483ZM71.87 28.1278C71.4496 28.1278 71.0604 28.0938 70.7024 28.0256C70.3501 27.9631 70.0689 27.8892 69.8587 27.804L70.5746 25.4006C71.0234 25.5313 71.424 25.5938 71.7763 25.5881C72.1286 25.5824 72.4382 25.4716 72.7053 25.2557C72.978 25.0455 73.2081 24.6932 73.3956 24.1989L73.6598 23.4915L68.9126 10.1278H72.1854L75.2024 20.0142H75.3388L78.3643 10.1278H81.6456L76.4041 24.804C76.1598 25.4972 75.8359 26.0909 75.4325 26.5852C75.0291 27.0852 74.5348 27.4659 73.9496 27.7273C73.37 27.9943 72.6768 28.1278 71.87 28.1278ZM104.81 11.6534H101.623C101.532 11.1307 101.364 10.6676 101.12 10.2642C100.876 9.85511 100.572 9.50852 100.208 9.22443C99.8445 8.94034 99.4297 8.72727 98.9638 8.58523C98.5036 8.4375 98.0064 8.36364 97.4723 8.36364C96.5234 8.36364 95.6825 8.60227 94.9496 9.07954C94.2166 9.55114 93.6428 10.2443 93.228 11.1591C92.8132 12.0682 92.6058 13.179 92.6058 14.4915C92.6058 15.8267 92.8132 16.9517 93.228 17.8665C93.6484 18.7756 94.2223 19.4631 94.9496 19.929C95.6825 20.3892 96.5206 20.6193 97.4638 20.6193C97.9865 20.6193 98.4751 20.5511 98.9297 20.4148C99.3899 20.2727 99.8018 20.0653 100.165 19.7926C100.535 19.5199 100.844 19.1847 101.094 18.7869C101.35 18.3892 101.526 17.9347 101.623 17.4233L104.81 17.4403C104.691 18.2699 104.433 19.0483 104.035 19.7756C103.643 20.5028 103.129 21.1449 102.492 21.7017C101.856 22.2528 101.112 22.6847 100.259 22.9972C99.407 23.304 98.4609 23.4574 97.4212 23.4574C95.8871 23.4574 94.5178 23.1023 93.3132 22.392C92.1087 21.6818 91.1598 20.6562 90.4666 19.3153C89.7734 17.9744 89.4268 16.3665 89.4268 14.4915C89.4268 12.6108 89.7763 11.0028 90.4751 9.66761C91.174 8.3267 92.1257 7.30114 93.3303 6.59091C94.5348 5.88068 95.8984 5.52557 97.4212 5.52557C98.3928 5.52557 99.2962 5.66193 100.131 5.93466C100.967 6.20739 101.711 6.60795 102.364 7.13636C103.018 7.65909 103.555 8.30114 103.975 9.0625C104.401 9.81818 104.68 10.6818 104.81 11.6534ZM110.655 15.5483V23.2188H107.57V5.7642H110.587V12.3523H110.74C111.047 11.6136 111.521 11.0312 112.163 10.6051C112.811 10.1733 113.635 9.95739 114.635 9.95739C115.544 9.95739 116.337 10.1477 117.013 10.5284C117.689 10.9091 118.212 11.4659 118.581 12.1989C118.956 12.9318 119.143 13.8267 119.143 14.8835V23.2188H116.058V15.3608C116.058 14.4801 115.831 13.7955 115.376 13.3068C114.928 12.8125 114.297 12.5653 113.484 12.5653C112.939 12.5653 112.45 12.6847 112.018 12.9233C111.592 13.1562 111.257 13.4943 111.013 13.9375C110.774 14.3807 110.655 14.9176 110.655 15.5483ZM127.999 23.4744C126.72 23.4744 125.612 23.1932 124.675 22.6307C123.737 22.0682 123.01 21.2812 122.493 20.2699C121.982 19.2585 121.726 18.0767 121.726 16.7244C121.726 15.3722 121.982 14.1875 122.493 13.1705C123.01 12.1534 123.737 11.3636 124.675 10.8011C125.612 10.2386 126.72 9.95739 127.999 9.95739C129.277 9.95739 130.385 10.2386 131.322 10.8011C132.26 11.3636 132.984 12.1534 133.496 13.1705C134.013 14.1875 134.271 15.3722 134.271 16.7244C134.271 18.0767 134.013 19.2585 133.496 20.2699C132.984 21.2812 132.26 22.0682 131.322 22.6307C130.385 23.1932 129.277 23.4744 127.999 23.4744ZM128.016 21.0028C128.709 21.0028 129.288 20.8125 129.754 20.4318C130.22 20.0455 130.567 19.5284 130.794 18.8807C131.027 18.233 131.143 17.5114 131.143 16.7159C131.143 15.9148 131.027 15.1903 130.794 14.5426C130.567 13.8892 130.22 13.3693 129.754 12.983C129.288 12.5966 128.709 12.4034 128.016 12.4034C127.305 12.4034 126.714 12.5966 126.243 12.983C125.777 13.3693 125.428 13.8892 125.195 14.5426C124.967 15.1903 124.854 15.9148 124.854 16.7159C124.854 17.5114 124.967 18.233 125.195 18.8807C125.428 19.5284 125.777 20.0455 126.243 20.4318C126.714 20.8125 127.305 21.0028 128.016 21.0028ZM142.6 23.4744C141.322 23.4744 140.214 23.1932 139.276 22.6307C138.339 22.0682 137.612 21.2812 137.094 20.2699C136.583 19.2585 136.327 18.0767 136.327 16.7244C136.327 15.3722 136.583 14.1875 137.094 13.1705C137.612 12.1534 138.339 11.3636 139.276 10.8011C140.214 10.2386 141.322 9.95739 142.6 9.95739C143.879 9.95739 144.987 10.2386 145.924 10.8011C146.862 11.3636 147.586 12.1534 148.097 13.1705C148.614 14.1875 148.873 15.3722 148.873 16.7244C148.873 18.0767 148.614 19.2585 148.097 20.2699C147.586 21.2812 146.862 22.0682 145.924 22.6307C144.987 23.1932 143.879 23.4744 142.6 23.4744ZM142.617 21.0028C143.31 21.0028 143.89 20.8125 144.356 20.4318C144.822 20.0455 145.168 19.5284 145.396 18.8807C145.629 18.233 145.745 17.5114 145.745 16.7159C145.745 15.9148 145.629 15.1903 145.396 14.5426C145.168 13.8892 144.822 13.3693 144.356 12.983C143.89 12.5966 143.31 12.4034 142.617 12.4034C141.907 12.4034 141.316 12.5966 140.844 12.983C140.379 13.3693 140.029 13.8892 139.796 14.5426C139.569 15.1903 139.455 15.9148 139.455 16.7159C139.455 17.5114 139.569 18.233 139.796 18.8807C140.029 19.5284 140.379 20.0455 140.844 20.4318C141.316 20.8125 141.907 21.0028 142.617 21.0028ZM161.838 13.5881L159.026 13.8949C158.946 13.6108 158.807 13.3438 158.608 13.0938C158.415 12.8438 158.153 12.642 157.824 12.4886C157.494 12.3352 157.091 12.2585 156.614 12.2585C155.972 12.2585 155.432 12.3977 154.994 12.6761C154.562 12.9545 154.349 13.3153 154.355 13.7585C154.349 14.1392 154.489 14.4489 154.773 14.6875C155.063 14.9261 155.54 15.1222 156.205 15.2756L158.438 15.7528C159.676 16.0199 160.597 16.4432 161.199 17.0227C161.807 17.6023 162.114 18.3608 162.119 19.2983C162.114 20.1222 161.872 20.8494 161.395 21.4801C160.923 22.1051 160.267 22.5937 159.426 22.946C158.585 23.2983 157.619 23.4744 156.528 23.4744C154.926 23.4744 153.636 23.1392 152.659 22.4688C151.682 21.7926 151.099 20.8523 150.912 19.6477L153.92 19.358C154.057 19.9489 154.347 20.3949 154.79 20.696C155.233 20.9972 155.81 21.1477 156.52 21.1477C157.253 21.1477 157.841 20.9972 158.284 20.696C158.733 20.3949 158.957 20.0227 158.957 19.5795C158.957 19.2045 158.813 18.8949 158.523 18.6506C158.239 18.4062 157.795 18.2187 157.193 18.0881L154.96 17.6193C153.705 17.358 152.776 16.9176 152.173 16.2983C151.571 15.6733 151.273 14.8835 151.278 13.929C151.273 13.1222 151.491 12.4233 151.935 11.8324C152.384 11.2358 153.006 10.7756 153.801 10.4517C154.602 10.1222 155.526 9.95739 156.571 9.95739C158.105 9.95739 159.313 10.2841 160.193 10.9375C161.08 11.5909 161.628 12.4744 161.838 13.5881ZM170.459 23.4744C169.146 23.4744 168.013 23.2017 167.058 22.6562C166.109 22.1051 165.379 21.3267 164.868 20.321C164.357 19.3097 164.101 18.1193 164.101 16.75C164.101 15.4034 164.357 14.2216 164.868 13.2045C165.385 12.1818 166.107 11.3864 167.033 10.8182C167.959 10.2443 169.047 9.95739 170.297 9.95739C171.104 9.95739 171.865 10.0881 172.581 10.3494C173.303 10.6051 173.939 11.0028 174.49 11.5426C175.047 12.0824 175.484 12.7699 175.803 13.6051C176.121 14.4347 176.28 15.4233 176.28 16.571V17.517H165.55V15.4375H173.322C173.317 14.8466 173.189 14.321 172.939 13.8608C172.689 13.3949 172.339 13.0284 171.891 12.7614C171.447 12.4943 170.93 12.3608 170.339 12.3608C169.709 12.3608 169.155 12.5142 168.678 12.821C168.2 13.1222 167.828 13.5199 167.561 14.0142C167.3 14.5028 167.166 15.0398 167.161 15.625V17.4403C167.161 18.2017 167.3 18.8551 167.578 19.4006C167.857 19.9403 168.246 20.3551 168.746 20.6449C169.246 20.929 169.831 21.071 170.501 21.071C170.95 21.071 171.357 21.0085 171.72 20.8835C172.084 20.7528 172.399 20.5625 172.666 20.3125C172.933 20.0625 173.135 19.7528 173.271 19.3835L176.152 19.7074C175.97 20.4687 175.624 21.1335 175.112 21.7017C174.607 22.2642 173.959 22.7017 173.169 23.0142C172.379 23.321 171.476 23.4744 170.459 23.4744ZM195.982 5.7642H199.144V17.1676C199.144 18.4176 198.849 19.517 198.258 20.4659C197.673 21.4148 196.849 22.1562 195.786 22.6903C194.724 23.2188 193.482 23.483 192.062 23.483C190.636 23.483 189.391 23.2188 188.329 22.6903C187.266 22.1562 186.442 21.4148 185.857 20.4659C185.272 19.517 184.979 18.4176 184.979 17.1676V5.7642H188.141V16.9034C188.141 17.6307 188.3 18.2784 188.619 18.8466C188.942 19.4148 189.397 19.8608 189.982 20.1847C190.567 20.5028 191.261 20.6619 192.062 20.6619C192.863 20.6619 193.556 20.5028 194.141 20.1847C194.732 19.8608 195.187 19.4148 195.505 18.8466C195.823 18.2784 195.982 17.6307 195.982 16.9034V5.7642ZM212.791 13.5881L209.979 13.8949C209.899 13.6108 209.76 13.3438 209.561 13.0938C209.368 12.8438 209.107 12.642 208.777 12.4886C208.447 12.3352 208.044 12.2585 207.567 12.2585C206.925 12.2585 206.385 12.3977 205.947 12.6761C205.516 12.9545 205.303 13.3153 205.308 13.7585C205.303 14.1392 205.442 14.4489 205.726 14.6875C206.016 14.9261 206.493 15.1222 207.158 15.2756L209.391 15.7528C210.629 16.0199 211.55 16.4432 212.152 17.0227C212.76 17.6023 213.067 18.3608 213.072 19.2983C213.067 20.1222 212.825 20.8494 212.348 21.4801C211.876 22.1051 211.22 22.5937 210.379 22.946C209.538 23.2983 208.572 23.4744 207.482 23.4744C205.879 23.4744 204.589 23.1392 203.612 22.4688C202.635 21.7926 202.053 20.8523 201.865 19.6477L204.874 19.358C205.01 19.9489 205.3 20.3949 205.743 20.696C206.186 20.9972 206.763 21.1477 207.473 21.1477C208.206 21.1477 208.794 20.9972 209.237 20.696C209.686 20.3949 209.911 20.0227 209.911 19.5795C209.911 19.2045 209.766 18.8949 209.476 18.6506C209.192 18.4062 208.749 18.2187 208.146 18.0881L205.913 17.6193C204.658 17.358 203.729 16.9176 203.126 16.2983C202.524 15.6733 202.226 14.8835 202.232 13.929C202.226 13.1222 202.445 12.4233 202.888 11.8324C203.337 11.2358 203.959 10.7756 204.754 10.4517C205.555 10.1222 206.479 9.95739 207.524 9.95739C209.058 9.95739 210.266 10.2841 211.146 10.9375C212.033 11.5909 212.581 12.4744 212.791 13.5881ZM218.565 18.0881V17.8665C218.571 16.8381 218.668 16.0199 218.855 15.4119C219.048 14.804 219.321 14.3153 219.673 13.946C220.026 13.571 220.455 13.2273 220.96 12.9148C221.307 12.6989 221.616 12.4631 221.889 12.2074C222.168 11.946 222.386 11.6562 222.545 11.3381C222.705 11.0142 222.784 10.6534 222.784 10.2557C222.784 9.80682 222.679 9.41761 222.469 9.08807C222.259 8.75852 221.974 8.50284 221.616 8.32102C221.264 8.1392 220.869 8.04829 220.432 8.04829C220.028 8.04829 219.645 8.13636 219.281 8.3125C218.923 8.48295 218.625 8.74432 218.386 9.09659C218.153 9.44318 218.023 9.88352 217.994 10.4176H214.96C214.989 9.33807 215.25 8.43466 215.744 7.70739C216.244 6.98011 216.903 6.43466 217.722 6.07102C218.545 5.70739 219.455 5.52557 220.449 5.52557C221.534 5.52557 222.489 5.71591 223.312 6.09659C224.142 6.47727 224.787 7.01989 225.247 7.72443C225.713 8.4233 225.946 9.25284 225.946 10.2131C225.946 10.8608 225.841 11.4403 225.631 11.9517C225.426 12.4631 225.134 12.9176 224.753 13.3153C224.372 13.7131 223.92 14.0682 223.398 14.3807C222.938 14.6648 222.56 14.9602 222.264 15.267C221.974 15.5739 221.759 15.9347 221.616 16.3494C221.48 16.7585 221.409 17.2642 221.403 17.8665V18.0881H218.565ZM220.048 23.4062C219.537 23.4062 219.097 23.2244 218.727 22.8608C218.358 22.4972 218.173 22.054 218.173 21.5312C218.173 21.0199 218.358 20.5824 218.727 20.2188C219.097 19.8551 219.537 19.6733 220.048 19.6733C220.554 19.6733 220.991 19.8551 221.361 20.2188C221.736 20.5824 221.923 21.0199 221.923 21.5312C221.923 21.8778 221.835 22.1932 221.659 22.4773C221.489 22.7614 221.261 22.9886 220.977 23.1591C220.699 23.3239 220.389 23.4062 220.048 23.4062Z" fill="#111827"/>
</svg>
